ISO-10303-21;
HEADER;
/* Generated by software containing ST-Developer
 * from STEP Tools, Inc. (www.steptools.com) 
 */
/* OPTION: using custom renumber hook */

FILE_DESCRIPTION(
/* description */ ('STEP AP242 Edition 2',
'CAx-IF Rec.Pracs.---Representation and Presentation of Product Manufa
cturing Information (PMI)---4.0---2014-10-13',
'CAx-IF Rec.Pracs.---3D Tessellated Geometry---0.4---2014-09-14','2;1',
'CAx-IF Rec.Pracs.---User Defined Attributes---1.5---2016-08-15'),
/* implementation_level */ '2;1');

FILE_NAME(
/* name */ 'Part Studio 1 - top tft',
/* time_stamp */ '2026-08-21T18:43:04Z',
/* author */ (''),
/* organization */ (''),
/* preprocessor_version */ 'ST-DEVELOPER v20',
/* originating_system */ 'ONSHAPE BY PTC INC, 1.219',
/* authorisation */ '  ');

FILE_SCHEMA (('AP242_MANAGED_MODEL_BASED_3D_ENGINEERING_MIM_LF { 1 0 10303 442 3 1 4 }'));
ENDSEC;

DATA;
#10=SHAPE_REPRESENTATION_RELATIONSHIP('','',#558,#11);
#11=ADVANCED_BREP_SHAPE_REPRESENTATION('',(#556),#944);
#12=SPHERICAL_SURFACE('',#600,0.00199);
#13=SPHERICAL_SURFACE('',#606,0.00199);
#14=SPHERICAL_SURFACE('',#612,0.00199);
#15=SPHERICAL_SURFACE('',#618,0.00199);
#16=CYLINDRICAL_SURFACE('',#584,0.000995);
#17=CYLINDRICAL_SURFACE('',#587,0.000995);
#18=CYLINDRICAL_SURFACE('',#590,0.000995);
#19=CYLINDRICAL_SURFACE('',#593,0.000995);
#20=CYLINDRICAL_SURFACE('',#596,0.00199);
#21=CYLINDRICAL_SURFACE('',#598,0.00199);
#22=CYLINDRICAL_SURFACE('',#602,0.00199);
#23=CYLINDRICAL_SURFACE('',#604,0.00199);
#24=CYLINDRICAL_SURFACE('',#608,0.00199);
#25=CYLINDRICAL_SURFACE('',#610,0.00199);
#26=CYLINDRICAL_SURFACE('',#614,0.00199);
#27=CYLINDRICAL_SURFACE('',#616,0.00199);
#28=CYLINDRICAL_SURFACE('',#620,0.00199);
#29=CIRCLE('',#562,0.000995);
#30=CIRCLE('',#563,0.000995);
#31=CIRCLE('',#564,0.000995);
#32=CIRCLE('',#565,0.000995);
#33=CIRCLE('',#566,0.00199);
#34=CIRCLE('',#567,0.00199);
#35=CIRCLE('',#568,0.00199);
#36=CIRCLE('',#569,0.00199);
#37=CIRCLE('',#577,0.00199);
#38=CIRCLE('',#580,0.00199);
#39=CIRCLE('',#585,0.000995);
#40=CIRCLE('',#588,0.000995);
#41=CIRCLE('',#591,0.000995);
#42=CIRCLE('',#594,0.000995);
#43=CIRCLE('',#597,0.00199);
#44=CIRCLE('',#599,0.00199);
#45=CIRCLE('',#601,0.00199);
#46=CIRCLE('',#603,0.00199);
#47=CIRCLE('',#605,0.00199);
#48=CIRCLE('',#607,0.00199);
#49=CIRCLE('',#609,0.00199);
#50=CIRCLE('',#611,0.00199);
#51=CIRCLE('',#613,0.00199);
#52=CIRCLE('',#615,0.00199);
#53=CIRCLE('',#617,0.00199);
#54=CIRCLE('',#619,0.00199);
#55=ORIENTED_EDGE('',*,*,#197,.F.);
#56=ORIENTED_EDGE('',*,*,#198,.T.);
#57=ORIENTED_EDGE('',*,*,#199,.T.);
#58=ORIENTED_EDGE('',*,*,#200,.T.);
#59=ORIENTED_EDGE('',*,*,#201,.T.);
#60=ORIENTED_EDGE('',*,*,#202,.T.);
#61=ORIENTED_EDGE('',*,*,#203,.T.);
#62=ORIENTED_EDGE('',*,*,#204,.F.);
#63=ORIENTED_EDGE('',*,*,#205,.F.);
#64=ORIENTED_EDGE('',*,*,#206,.T.);
#65=ORIENTED_EDGE('',*,*,#207,.T.);
#66=ORIENTED_EDGE('',*,*,#208,.F.);
#67=ORIENTED_EDGE('',*,*,#209,.F.);
#68=ORIENTED_EDGE('',*,*,#210,.F.);
#69=ORIENTED_EDGE('',*,*,#211,.F.);
#70=ORIENTED_EDGE('',*,*,#212,.F.);
#71=ORIENTED_EDGE('',*,*,#213,.T.);
#72=ORIENTED_EDGE('',*,*,#214,.F.);
#73=ORIENTED_EDGE('',*,*,#215,.F.);
#74=ORIENTED_EDGE('',*,*,#216,.T.);
#75=ORIENTED_EDGE('',*,*,#217,.F.);
#76=ORIENTED_EDGE('',*,*,#218,.T.);
#77=ORIENTED_EDGE('',*,*,#219,.T.);
#78=ORIENTED_EDGE('',*,*,#220,.T.);
#79=ORIENTED_EDGE('',*,*,#221,.T.);
#80=ORIENTED_EDGE('',*,*,#222,.T.);
#81=ORIENTED_EDGE('',*,*,#223,.F.);
#82=ORIENTED_EDGE('',*,*,#224,.T.);
#83=ORIENTED_EDGE('',*,*,#225,.F.);
#84=ORIENTED_EDGE('',*,*,#226,.F.);
#85=ORIENTED_EDGE('',*,*,#227,.F.);
#86=ORIENTED_EDGE('',*,*,#228,.T.);
#87=ORIENTED_EDGE('',*,*,#219,.F.);
#88=ORIENTED_EDGE('',*,*,#229,.T.);
#89=ORIENTED_EDGE('',*,*,#230,.T.);
#90=ORIENTED_EDGE('',*,*,#231,.T.);
#91=ORIENTED_EDGE('',*,*,#223,.T.);
#92=ORIENTED_EDGE('',*,*,#232,.T.);
#93=ORIENTED_EDGE('',*,*,#233,.T.);
#94=ORIENTED_EDGE('',*,*,#234,.T.);
#95=ORIENTED_EDGE('',*,*,#235,.T.);
#96=ORIENTED_EDGE('',*,*,#207,.F.);
#97=ORIENTED_EDGE('',*,*,#236,.F.);
#98=ORIENTED_EDGE('',*,*,#216,.F.);
#99=ORIENTED_EDGE('',*,*,#215,.T.);
#100=ORIENTED_EDGE('',*,*,#237,.T.);
#101=ORIENTED_EDGE('',*,*,#208,.T.);
#102=ORIENTED_EDGE('',*,*,#235,.F.);
#103=ORIENTED_EDGE('',*,*,#214,.T.);
#104=ORIENTED_EDGE('',*,*,#238,.T.);
#105=ORIENTED_EDGE('',*,*,#205,.T.);
#106=ORIENTED_EDGE('',*,*,#237,.F.);
#107=ORIENTED_EDGE('',*,*,#236,.T.);
#108=ORIENTED_EDGE('',*,*,#206,.F.);
#109=ORIENTED_EDGE('',*,*,#238,.F.);
#110=ORIENTED_EDGE('',*,*,#213,.F.);
#111=ORIENTED_EDGE('',*,*,#239,.T.);
#112=ORIENTED_EDGE('',*,*,#240,.T.);
#113=ORIENTED_EDGE('',*,*,#197,.T.);
#114=ORIENTED_EDGE('',*,*,#241,.F.);
#115=ORIENTED_EDGE('',*,*,#226,.T.);
#116=ORIENTED_EDGE('',*,*,#227,.T.);
#117=ORIENTED_EDGE('',*,*,#241,.T.);
#118=ORIENTED_EDGE('',*,*,#204,.T.);
#119=ORIENTED_EDGE('',*,*,#242,.F.);
#120=ORIENTED_EDGE('',*,*,#203,.F.);
#121=ORIENTED_EDGE('',*,*,#243,.T.);
#122=ORIENTED_EDGE('',*,*,#244,.F.);
#123=ORIENTED_EDGE('',*,*,#228,.F.);
#124=ORIENTED_EDGE('',*,*,#242,.T.);
#125=ORIENTED_EDGE('',*,*,#221,.F.);
#126=ORIENTED_EDGE('',*,*,#245,.T.);
#127=ORIENTED_EDGE('',*,*,#246,.T.);
#128=ORIENTED_EDGE('',*,*,#247,.T.);
#129=ORIENTED_EDGE('',*,*,#248,.T.);
#130=ORIENTED_EDGE('',*,*,#249,.T.);
#131=ORIENTED_EDGE('',*,*,#217,.T.);
#132=ORIENTED_EDGE('',*,*,#244,.T.);
#133=ORIENTED_EDGE('',*,*,#225,.T.);
#134=ORIENTED_EDGE('',*,*,#250,.T.);
#135=ORIENTED_EDGE('',*,*,#251,.T.);
#136=ORIENTED_EDGE('',*,*,#239,.F.);
#137=ORIENTED_EDGE('',*,*,#252,.F.);
#138=ORIENTED_EDGE('',*,*,#212,.T.);
#139=ORIENTED_EDGE('',*,*,#252,.T.);
#140=ORIENTED_EDGE('',*,*,#253,.F.);
#141=ORIENTED_EDGE('',*,*,#211,.T.);
#142=ORIENTED_EDGE('',*,*,#253,.T.);
#143=ORIENTED_EDGE('',*,*,#254,.F.);
#144=ORIENTED_EDGE('',*,*,#210,.T.);
#145=ORIENTED_EDGE('',*,*,#254,.T.);
#146=ORIENTED_EDGE('',*,*,#255,.F.);
#147=ORIENTED_EDGE('',*,*,#209,.T.);
#148=ORIENTED_EDGE('',*,*,#255,.T.);
#149=ORIENTED_EDGE('',*,*,#224,.F.);
#150=ORIENTED_EDGE('',*,*,#234,.F.);
#151=ORIENTED_EDGE('',*,*,#256,.F.);
#152=ORIENTED_EDGE('',*,*,#250,.F.);
#153=ORIENTED_EDGE('',*,*,#240,.F.);
#154=ORIENTED_EDGE('',*,*,#251,.F.);
#155=ORIENTED_EDGE('',*,*,#257,.F.);
#156=ORIENTED_EDGE('',*,*,#198,.F.);
#157=ORIENTED_EDGE('',*,*,#257,.T.);
#158=ORIENTED_EDGE('',*,*,#256,.T.);
#159=ORIENTED_EDGE('',*,*,#258,.F.);
#160=ORIENTED_EDGE('',*,*,#222,.F.);
#161=ORIENTED_EDGE('',*,*,#247,.F.);
#162=ORIENTED_EDGE('',*,*,#259,.F.);
#163=ORIENTED_EDGE('',*,*,#232,.F.);
#164=ORIENTED_EDGE('',*,*,#258,.T.);
#165=ORIENTED_EDGE('',*,*,#233,.F.);
#166=ORIENTED_EDGE('',*,*,#260,.F.);
#167=ORIENTED_EDGE('',*,*,#199,.F.);
#168=ORIENTED_EDGE('',*,*,#260,.T.);
#169=ORIENTED_EDGE('',*,*,#259,.T.);
#170=ORIENTED_EDGE('',*,*,#261,.F.);
#171=ORIENTED_EDGE('',*,*,#220,.F.);
#172=ORIENTED_EDGE('',*,*,#231,.F.);
#173=ORIENTED_EDGE('',*,*,#262,.F.);
#174=ORIENTED_EDGE('',*,*,#245,.F.);
#175=ORIENTED_EDGE('',*,*,#261,.T.);
#176=ORIENTED_EDGE('',*,*,#246,.F.);
#177=ORIENTED_EDGE('',*,*,#263,.F.);
#178=ORIENTED_EDGE('',*,*,#200,.F.);
#179=ORIENTED_EDGE('',*,*,#263,.T.);
#180=ORIENTED_EDGE('',*,*,#262,.T.);
#181=ORIENTED_EDGE('',*,*,#264,.F.);
#182=ORIENTED_EDGE('',*,*,#264,.T.);
#183=ORIENTED_EDGE('',*,*,#230,.F.);
#184=ORIENTED_EDGE('',*,*,#265,.F.);
#185=ORIENTED_EDGE('',*,*,#201,.F.);
#186=ORIENTED_EDGE('',*,*,#243,.F.);
#187=ORIENTED_EDGE('',*,*,#202,.F.);
#188=ORIENTED_EDGE('',*,*,#266,.F.);
#189=ORIENTED_EDGE('',*,*,#248,.F.);
#190=ORIENTED_EDGE('',*,*,#266,.T.);
#191=ORIENTED_EDGE('',*,*,#265,.T.);
#192=ORIENTED_EDGE('',*,*,#267,.F.);
#193=ORIENTED_EDGE('',*,*,#267,.T.);
#194=ORIENTED_EDGE('',*,*,#229,.F.);
#195=ORIENTED_EDGE('',*,*,#218,.F.);
#196=ORIENTED_EDGE('',*,*,#249,.F.);
#197=EDGE_CURVE('',#268,#269,#314,.T.);
#198=EDGE_CURVE('',#268,#270,#315,.T.);
#199=EDGE_CURVE('',#270,#271,#316,.T.);
#200=EDGE_CURVE('',#271,#272,#317,.F.);
#201=EDGE_CURVE('',#272,#273,#318,.F.);
#202=EDGE_CURVE('',#273,#274,#319,.T.);
#203=EDGE_CURVE('',#274,#275,#320,.T.);
#204=EDGE_CURVE('',#269,#275,#321,.T.);
#205=EDGE_CURVE('',#276,#277,#322,.T.);
#206=EDGE_CURVE('',#276,#278,#323,.T.);
#207=EDGE_CURVE('',#278,#279,#324,.T.);
#208=EDGE_CURVE('',#277,#279,#325,.T.);
#209=EDGE_CURVE('',#280,#280,#29,.T.);
#210=EDGE_CURVE('',#281,#281,#30,.T.);
#211=EDGE_CURVE('',#282,#282,#31,.T.);
#212=EDGE_CURVE('',#283,#283,#32,.T.);
#213=EDGE_CURVE('',#284,#285,#326,.T.);
#214=EDGE_CURVE('',#286,#285,#327,.T.);
#215=EDGE_CURVE('',#287,#286,#328,.T.);
#216=EDGE_CURVE('',#287,#284,#329,.T.);
#217=EDGE_CURVE('',#288,#289,#330,.T.);
#218=EDGE_CURVE('',#288,#290,#33,.F.);
#219=EDGE_CURVE('',#290,#291,#331,.T.);
#220=EDGE_CURVE('',#291,#292,#34,.F.);
#221=EDGE_CURVE('',#292,#293,#332,.T.);
#222=EDGE_CURVE('',#293,#294,#35,.F.);
#223=EDGE_CURVE('',#295,#294,#333,.T.);
#224=EDGE_CURVE('',#295,#296,#36,.F.);
#225=EDGE_CURVE('',#297,#296,#334,.T.);
#226=EDGE_CURVE('',#298,#297,#335,.T.);
#227=EDGE_CURVE('',#299,#298,#336,.T.);
#228=EDGE_CURVE('',#299,#289,#337,.T.);
#229=EDGE_CURVE('',#290,#300,#338,.F.);
#230=EDGE_CURVE('',#300,#301,#339,.T.);
#231=EDGE_CURVE('',#301,#291,#340,.T.);
#232=EDGE_CURVE('',#294,#302,#341,.F.);
#233=EDGE_CURVE('',#302,#303,#342,.F.);
#234=EDGE_CURVE('',#303,#295,#343,.T.);
#235=EDGE_CURVE('',#287,#279,#344,.T.);
#236=EDGE_CURVE('',#284,#278,#345,.T.);
#237=EDGE_CURVE('',#286,#277,#346,.T.);
#238=EDGE_CURVE('',#285,#276,#347,.T.);
#239=EDGE_CURVE('',#297,#304,#348,.T.);
#240=EDGE_CURVE('',#304,#268,#37,.F.);
#241=EDGE_CURVE('',#298,#269,#349,.T.);
#242=EDGE_CURVE('',#299,#275,#350,.T.);
#243=EDGE_CURVE('',#274,#305,#38,.T.);
#244=EDGE_CURVE('',#289,#305,#351,.T.);
#245=EDGE_CURVE('',#292,#306,#352,.F.);
#246=EDGE_CURVE('',#306,#307,#353,.T.);
#247=EDGE_CURVE('',#307,#293,#354,.T.);
#248=EDGE_CURVE('',#305,#308,#355,.F.);
#249=EDGE_CURVE('',#308,#288,#356,.T.);
#250=EDGE_CURVE('',#296,#309,#357,.F.);
#251=EDGE_CURVE('',#309,#304,#358,.F.);
#252=EDGE_CURVE('',#310,#310,#39,.T.);
#253=EDGE_CURVE('',#311,#311,#40,.T.);
#254=EDGE_CURVE('',#312,#312,#41,.T.);
#255=EDGE_CURVE('',#313,#313,#42,.T.);
#256=EDGE_CURVE('',#309,#303,#43,.T.);
#257=EDGE_CURVE('',#270,#309,#44,.T.);
#258=EDGE_CURVE('',#270,#303,#45,.F.);
#259=EDGE_CURVE('',#302,#307,#46,.T.);
#260=EDGE_CURVE('',#271,#302,#47,.T.);
#261=EDGE_CURVE('',#271,#307,#48,.F.);
#262=EDGE_CURVE('',#306,#301,#49,.T.);
#263=EDGE_CURVE('',#272,#306,#50,.T.);
#264=EDGE_CURVE('',#272,#301,#51,.F.);
#265=EDGE_CURVE('',#273,#300,#52,.T.);
#266=EDGE_CURVE('',#308,#273,#53,.T.);
#267=EDGE_CURVE('',#308,#300,#54,.F.);
#268=VERTEX_POINT('',#793);
#269=VERTEX_POINT('',#794);
#270=VERTEX_POINT('',#796);
#271=VERTEX_POINT('',#798);
#272=VERTEX_POINT('',#800);
#273=VERTEX_POINT('',#802);
#274=VERTEX_POINT('',#804);
#275=VERTEX_POINT('',#806);
#276=VERTEX_POINT('',#809);
#277=VERTEX_POINT('',#810);
#278=VERTEX_POINT('',#812);
#279=VERTEX_POINT('',#814);
#280=VERTEX_POINT('',#818);
#281=VERTEX_POINT('',#820);
#282=VERTEX_POINT('',#822);
#283=VERTEX_POINT('',#824);
#284=VERTEX_POINT('',#826);
#285=VERTEX_POINT('',#827);
#286=VERTEX_POINT('',#829);
#287=VERTEX_POINT('',#831);
#288=VERTEX_POINT('',#834);
#289=VERTEX_POINT('',#835);
#290=VERTEX_POINT('',#837);
#291=VERTEX_POINT('',#839);
#292=VERTEX_POINT('',#841);
#293=VERTEX_POINT('',#843);
#294=VERTEX_POINT('',#845);
#295=VERTEX_POINT('',#847);
#296=VERTEX_POINT('',#849);
#297=VERTEX_POINT('',#851);
#298=VERTEX_POINT('',#853);
#299=VERTEX_POINT('',#855);
#300=VERTEX_POINT('',#859);
#301=VERTEX_POINT('',#861);
#302=VERTEX_POINT('',#865);
#303=VERTEX_POINT('',#867);
#304=VERTEX_POINT('',#879);
#305=VERTEX_POINT('',#886);
#306=VERTEX_POINT('',#890);
#307=VERTEX_POINT('',#892);
#308=VERTEX_POINT('',#896);
#309=VERTEX_POINT('',#900);
#310=VERTEX_POINT('',#904);
#311=VERTEX_POINT('',#908);
#312=VERTEX_POINT('',#912);
#313=VERTEX_POINT('',#916);
#314=LINE('',#792,#359);
#315=LINE('',#795,#360);
#316=LINE('',#797,#361);
#317=LINE('',#799,#362);
#318=LINE('',#801,#363);
#319=LINE('',#803,#364);
#320=LINE('',#805,#365);
#321=LINE('',#807,#366);
#322=LINE('',#808,#367);
#323=LINE('',#811,#368);
#324=LINE('',#813,#369);
#325=LINE('',#815,#370);
#326=LINE('',#825,#371);
#327=LINE('',#828,#372);
#328=LINE('',#830,#373);
#329=LINE('',#832,#374);
#330=LINE('',#833,#375);
#331=LINE('',#838,#376);
#332=LINE('',#842,#377);
#333=LINE('',#846,#378);
#334=LINE('',#850,#379);
#335=LINE('',#852,#380);
#336=LINE('',#854,#381);
#337=LINE('',#856,#382);
#338=LINE('',#858,#383);
#339=LINE('',#860,#384);
#340=LINE('',#862,#385);
#341=LINE('',#864,#386);
#342=LINE('',#866,#387);
#343=LINE('',#868,#388);
#344=LINE('',#870,#389);
#345=LINE('',#871,#390);
#346=LINE('',#873,#391);
#347=LINE('',#875,#392);
#348=LINE('',#878,#393);
#349=LINE('',#881,#394);
#350=LINE('',#883,#395);
#351=LINE('',#887,#396);
#352=LINE('',#889,#397);
#353=LINE('',#891,#398);
#354=LINE('',#893,#399);
#355=LINE('',#895,#400);
#356=LINE('',#897,#401);
#357=LINE('',#899,#402);
#358=LINE('',#901,#403);
#359=VECTOR('',#625,1.);
#360=VECTOR('',#626,1.);
#361=VECTOR('',#627,1.);
#362=VECTOR('',#628,1.);
#363=VECTOR('',#629,1.);
#364=VECTOR('',#630,1.);
#365=VECTOR('',#631,1.);
#366=VECTOR('',#632,1.);
#367=VECTOR('',#633,1.);
#368=VECTOR('',#634,1.);
#369=VECTOR('',#635,1.);
#370=VECTOR('',#636,1.);
#371=VECTOR('',#647,1.);
#372=VECTOR('',#648,1.);
#373=VECTOR('',#649,1.);
#374=VECTOR('',#650,1.);
#375=VECTOR('',#651,1.);
#376=VECTOR('',#654,1.);
#377=VECTOR('',#657,1.);
#378=VECTOR('',#660,1.);
#379=VECTOR('',#663,1.);
#380=VECTOR('',#664,1.);
#381=VECTOR('',#665,1.);
#382=VECTOR('',#666,1.);
#383=VECTOR('',#669,1.);
#384=VECTOR('',#670,1.);
#385=VECTOR('',#671,1.);
#386=VECTOR('',#674,1.);
#387=VECTOR('',#675,1.);
#388=VECTOR('',#676,1.);
#389=VECTOR('',#679,1.);
#390=VECTOR('',#680,1.);
#391=VECTOR('',#683,1.);
#392=VECTOR('',#686,1.);
#393=VECTOR('',#691,1.);
#394=VECTOR('',#694,1.);
#395=VECTOR('',#697,1.);
#396=VECTOR('',#702,1.);
#397=VECTOR('',#705,1.);
#398=VECTOR('',#706,1.);
#399=VECTOR('',#707,1.);
#400=VECTOR('',#710,1.);
#401=VECTOR('',#711,1.);
#402=VECTOR('',#714,1.);
#403=VECTOR('',#715,1.);
#404=EDGE_LOOP('',(#55,#56,#57,#58,#59,#60,#61,#62));
#405=EDGE_LOOP('',(#63,#64,#65,#66));
#406=EDGE_LOOP('',(#67));
#407=EDGE_LOOP('',(#68));
#408=EDGE_LOOP('',(#69));
#409=EDGE_LOOP('',(#70));
#410=EDGE_LOOP('',(#71,#72,#73,#74));
#411=EDGE_LOOP('',(#75,#76,#77,#78,#79,#80,#81,#82,#83,#84,#85,#86));
#412=EDGE_LOOP('',(#87,#88,#89,#90));
#413=EDGE_LOOP('',(#91,#92,#93,#94));
#414=EDGE_LOOP('',(#95,#96,#97,#98));
#415=EDGE_LOOP('',(#99,#100,#101,#102));
#416=EDGE_LOOP('',(#103,#104,#105,#106));
#417=EDGE_LOOP('',(#107,#108,#109,#110));
#418=EDGE_LOOP('',(#111,#112,#113,#114,#115));
#419=EDGE_LOOP('',(#116,#117,#118,#119));
#420=EDGE_LOOP('',(#120,#121,#122,#123,#124));
#421=EDGE_LOOP('',(#125,#126,#127,#128));
#422=EDGE_LOOP('',(#129,#130,#131,#132));
#423=EDGE_LOOP('',(#133,#134,#135,#136));
#424=EDGE_LOOP('',(#137));
#425=EDGE_LOOP('',(#138));
#426=EDGE_LOOP('',(#139));
#427=EDGE_LOOP('',(#140));
#428=EDGE_LOOP('',(#141));
#429=EDGE_LOOP('',(#142));
#430=EDGE_LOOP('',(#143));
#431=EDGE_LOOP('',(#144));
#432=EDGE_LOOP('',(#145));
#433=EDGE_LOOP('',(#146));
#434=EDGE_LOOP('',(#147));
#435=EDGE_LOOP('',(#148));
#436=EDGE_LOOP('',(#149,#150,#151,#152));
#437=EDGE_LOOP('',(#153,#154,#155,#156));
#438=EDGE_LOOP('',(#157,#158,#159));
#439=EDGE_LOOP('',(#160,#161,#162,#163));
#440=EDGE_LOOP('',(#164,#165,#166,#167));
#441=EDGE_LOOP('',(#168,#169,#170));
#442=EDGE_LOOP('',(#171,#172,#173,#174));
#443=EDGE_LOOP('',(#175,#176,#177,#178));
#444=EDGE_LOOP('',(#179,#180,#181));
#445=EDGE_LOOP('',(#182,#183,#184,#185));
#446=EDGE_LOOP('',(#186,#187,#188,#189));
#447=EDGE_LOOP('',(#190,#191,#192));
#448=EDGE_LOOP('',(#193,#194,#195,#196));
#449=FACE_BOUND('',#404,.T.);
#450=FACE_BOUND('',#405,.T.);
#451=FACE_BOUND('',#406,.T.);
#452=FACE_BOUND('',#407,.T.);
#453=FACE_BOUND('',#408,.T.);
#454=FACE_BOUND('',#409,.T.);
#455=FACE_BOUND('',#410,.T.);
#456=FACE_BOUND('',#411,.T.);
#457=FACE_BOUND('',#412,.T.);
#458=FACE_BOUND('',#413,.T.);
#459=FACE_BOUND('',#414,.T.);
#460=FACE_BOUND('',#415,.T.);
#461=FACE_BOUND('',#416,.T.);
#462=FACE_BOUND('',#417,.T.);
#463=FACE_BOUND('',#418,.T.);
#464=FACE_BOUND('',#419,.T.);
#465=FACE_BOUND('',#420,.T.);
#466=FACE_BOUND('',#421,.T.);
#467=FACE_BOUND('',#422,.T.);
#468=FACE_BOUND('',#423,.T.);
#469=FACE_BOUND('',#424,.T.);
#470=FACE_BOUND('',#425,.T.);
#471=FACE_BOUND('',#426,.T.);
#472=FACE_BOUND('',#427,.T.);
#473=FACE_BOUND('',#428,.T.);
#474=FACE_BOUND('',#429,.T.);
#475=FACE_BOUND('',#430,.T.);
#476=FACE_BOUND('',#431,.T.);
#477=FACE_BOUND('',#432,.T.);
#478=FACE_BOUND('',#433,.T.);
#479=FACE_BOUND('',#434,.T.);
#480=FACE_BOUND('',#435,.T.);
#481=FACE_BOUND('',#436,.T.);
#482=FACE_BOUND('',#437,.T.);
#483=FACE_BOUND('',#438,.T.);
#484=FACE_BOUND('',#439,.T.);
#485=FACE_BOUND('',#440,.T.);
#486=FACE_BOUND('',#441,.T.);
#487=FACE_BOUND('',#442,.T.);
#488=FACE_BOUND('',#443,.T.);
#489=FACE_BOUND('',#444,.T.);
#490=FACE_BOUND('',#445,.T.);
#491=FACE_BOUND('',#446,.T.);
#492=FACE_BOUND('',#447,.T.);
#493=FACE_BOUND('',#448,.T.);
#494=PLANE('',#560);
#495=PLANE('',#561);
#496=PLANE('',#570);
#497=PLANE('',#571);
#498=PLANE('',#572);
#499=PLANE('',#573);
#500=PLANE('',#574);
#501=PLANE('',#575);
#502=PLANE('',#576);
#503=PLANE('',#578);
#504=PLANE('',#579);
#505=PLANE('',#581);
#506=PLANE('',#582);
#507=PLANE('',#583);
#508=PLANE('',#586);
#509=PLANE('',#589);
#510=PLANE('',#592);
#511=PLANE('',#595);
#512=ADVANCED_FACE('',(#449,#450),#494,.T.);
#513=ADVANCED_FACE('',(#451,#452,#453,#454,#455,#456),#495,.F.);
#514=ADVANCED_FACE('',(#457),#496,.T.);
#515=ADVANCED_FACE('',(#458),#497,.F.);
#516=ADVANCED_FACE('',(#459),#498,.T.);
#517=ADVANCED_FACE('',(#460),#499,.F.);
#518=ADVANCED_FACE('',(#461),#500,.F.);
#519=ADVANCED_FACE('',(#462),#501,.T.);
#520=ADVANCED_FACE('',(#463),#502,.F.);
#521=ADVANCED_FACE('',(#464),#503,.F.);
#522=ADVANCED_FACE('',(#465),#504,.T.);
#523=ADVANCED_FACE('',(#466),#505,.T.);
#524=ADVANCED_FACE('',(#467),#506,.F.);
#525=ADVANCED_FACE('',(#468),#507,.F.);
#526=ADVANCED_FACE('',(#469,#470),#16,.T.);
#527=ADVANCED_FACE('',(#471),#508,.T.);
#528=ADVANCED_FACE('',(#472,#473),#17,.T.);
#529=ADVANCED_FACE('',(#474),#509,.T.);
#530=ADVANCED_FACE('',(#475,#476),#18,.T.);
#531=ADVANCED_FACE('',(#477),#510,.T.);
#532=ADVANCED_FACE('',(#478,#479),#19,.T.);
#533=ADVANCED_FACE('',(#480),#511,.T.);
#534=ADVANCED_FACE('',(#481),#20,.T.);
#535=ADVANCED_FACE('',(#482),#21,.T.);
#536=ADVANCED_FACE('',(#483),#12,.T.);
#537=ADVANCED_FACE('',(#484),#22,.T.);
#538=ADVANCED_FACE('',(#485),#23,.T.);
#539=ADVANCED_FACE('',(#486),#13,.T.);
#540=ADVANCED_FACE('',(#487),#24,.T.);
#541=ADVANCED_FACE('',(#488),#25,.T.);
#542=ADVANCED_FACE('',(#489),#14,.T.);
#543=ADVANCED_FACE('',(#490),#26,.T.);
#544=ADVANCED_FACE('',(#491),#27,.T.);
#545=ADVANCED_FACE('',(#492),#15,.T.);
#546=ADVANCED_FACE('',(#493),#28,.T.);
#547=CLOSED_SHELL('',(#512,#513,#514,#515,#516,#517,#518,#519,#520,#521,
#522,#523,#524,#525,#526,#527,#528,#529,#530,#531,#532,#533,#534,#535,#536,
#537,#538,#539,#540,#541,#542,#543,#544,#545,#546));
#548=STYLED_ITEM('',(#549),#556);
#549=PRESENTATION_STYLE_ASSIGNMENT((#550));
#550=SURFACE_STYLE_USAGE(.BOTH.,#551);
#551=SURFACE_SIDE_STYLE('',(#552));
#552=SURFACE_STYLE_FILL_AREA(#553);
#553=FILL_AREA_STYLE('',(#554));
#554=FILL_AREA_STYLE_COLOUR('',#555);
#555=COLOUR_RGB('',0.615686274509804,0.811764705882353,0.929411764705882);
#556=MANIFOLD_SOLID_BREP('top tft',#547);
#557=SHAPE_DEFINITION_REPRESENTATION(#949,#558);
#558=SHAPE_REPRESENTATION('top tft',(#559),#944);
#559=AXIS2_PLACEMENT_3D('',#790,#621,#622);
#560=AXIS2_PLACEMENT_3D('',#791,#623,#624);
#561=AXIS2_PLACEMENT_3D('',#816,#637,#638);
#562=AXIS2_PLACEMENT_3D('',#817,#639,#640);
#563=AXIS2_PLACEMENT_3D('',#819,#641,#642);
#564=AXIS2_PLACEMENT_3D('',#821,#643,#644);
#565=AXIS2_PLACEMENT_3D('',#823,#645,#646);
#566=AXIS2_PLACEMENT_3D('',#836,#652,#653);
#567=AXIS2_PLACEMENT_3D('',#840,#655,#656);
#568=AXIS2_PLACEMENT_3D('',#844,#658,#659);
#569=AXIS2_PLACEMENT_3D('',#848,#661,#662);
#570=AXIS2_PLACEMENT_3D('',#857,#667,#668);
#571=AXIS2_PLACEMENT_3D('',#863,#672,#673);
#572=AXIS2_PLACEMENT_3D('',#869,#677,#678);
#573=AXIS2_PLACEMENT_3D('',#872,#681,#682);
#574=AXIS2_PLACEMENT_3D('',#874,#684,#685);
#575=AXIS2_PLACEMENT_3D('',#876,#687,#688);
#576=AXIS2_PLACEMENT_3D('',#877,#689,#690);
#577=AXIS2_PLACEMENT_3D('',#880,#692,#693);
#578=AXIS2_PLACEMENT_3D('',#882,#695,#696);
#579=AXIS2_PLACEMENT_3D('',#884,#698,#699);
#580=AXIS2_PLACEMENT_3D('',#885,#700,#701);
#581=AXIS2_PLACEMENT_3D('',#888,#703,#704);
#582=AXIS2_PLACEMENT_3D('',#894,#708,#709);
#583=AXIS2_PLACEMENT_3D('',#898,#712,#713);
#584=AXIS2_PLACEMENT_3D('',#902,#716,#717);
#585=AXIS2_PLACEMENT_3D('',#903,#718,#719);
#586=AXIS2_PLACEMENT_3D('',#905,#720,#721);
#587=AXIS2_PLACEMENT_3D('',#906,#722,#723);
#588=AXIS2_PLACEMENT_3D('',#907,#724,#725);
#589=AXIS2_PLACEMENT_3D('',#909,#726,#727);
#590=AXIS2_PLACEMENT_3D('',#910,#728,#729);
#591=AXIS2_PLACEMENT_3D('',#911,#730,#731);
#592=AXIS2_PLACEMENT_3D('',#913,#732,#733);
#593=AXIS2_PLACEMENT_3D('',#914,#734,#735);
#594=AXIS2_PLACEMENT_3D('',#915,#736,#737);
#595=AXIS2_PLACEMENT_3D('',#917,#738,#739);
#596=AXIS2_PLACEMENT_3D('',#918,#740,#741);
#597=AXIS2_PLACEMENT_3D('',#919,#742,#743);
#598=AXIS2_PLACEMENT_3D('',#920,#744,#745);
#599=AXIS2_PLACEMENT_3D('',#921,#746,#747);
#600=AXIS2_PLACEMENT_3D('',#922,#748,#749);
#601=AXIS2_PLACEMENT_3D('',#923,#750,#751);
#602=AXIS2_PLACEMENT_3D('',#924,#752,#753);
#603=AXIS2_PLACEMENT_3D('',#925,#754,#755);
#604=AXIS2_PLACEMENT_3D('',#926,#756,#757);
#605=AXIS2_PLACEMENT_3D('',#927,#758,#759);
#606=AXIS2_PLACEMENT_3D('',#928,#760,#761);
#607=AXIS2_PLACEMENT_3D('',#929,#762,#763);
#608=AXIS2_PLACEMENT_3D('',#930,#764,#765);
#609=AXIS2_PLACEMENT_3D('',#931,#766,#767);
#610=AXIS2_PLACEMENT_3D('',#932,#768,#769);
#611=AXIS2_PLACEMENT_3D('',#933,#770,#771);
#612=AXIS2_PLACEMENT_3D('',#934,#772,#773);
#613=AXIS2_PLACEMENT_3D('',#935,#774,#775);
#614=AXIS2_PLACEMENT_3D('',#936,#776,#777);
#615=AXIS2_PLACEMENT_3D('',#937,#778,#779);
#616=AXIS2_PLACEMENT_3D('',#938,#780,#781);
#617=AXIS2_PLACEMENT_3D('',#939,#782,#783);
#618=AXIS2_PLACEMENT_3D('',#940,#784,#785);
#619=AXIS2_PLACEMENT_3D('',#941,#786,#787);
#620=AXIS2_PLACEMENT_3D('',#942,#788,#789);
#621=DIRECTION('',(0.,0.,1.));
#622=DIRECTION('',(1.,0.,0.));
#623=DIRECTION('',(0.,-1.,0.));
#624=DIRECTION('',(1.,0.,0.));
#625=DIRECTION('',(1.,0.,0.));
#626=DIRECTION('',(6.54612632444078E-17,0.,-1.));
#627=DIRECTION('',(1.,0.,0.));
#628=DIRECTION('',(0.,0.,-1.));
#629=DIRECTION('',(1.,0.,0.));
#630=DIRECTION('',(6.54612632444078E-17,0.,-1.));
#631=DIRECTION('',(1.,0.,0.));
#632=DIRECTION('',(-3.46944695195362E-16,0.,1.));
#633=DIRECTION('',(1.,0.,0.));
#634=DIRECTION('',(-1.57702134179709E-16,0.,1.));
#635=DIRECTION('',(1.,0.,0.));
#636=DIRECTION('',(-3.1540426835942E-16,0.,1.));
#637=DIRECTION('',(0.,-1.,0.));
#638=DIRECTION('',(1.,0.,0.));
#639=DIRECTION('',(0.,1.,0.));
#640=DIRECTION('',(0.,0.,1.));
#641=DIRECTION('',(0.,1.,0.));
#642=DIRECTION('',(0.,0.,1.));
#643=DIRECTION('',(0.,1.,0.));
#644=DIRECTION('',(0.,0.,1.));
#645=DIRECTION('',(0.,1.,0.));
#646=DIRECTION('',(0.,0.,1.));
#647=DIRECTION('',(1.5770213417971E-16,0.,-1.));
#648=DIRECTION('',(-1.,0.,0.));
#649=DIRECTION('',(3.1540426835942E-16,0.,-1.));
#650=DIRECTION('',(-1.,0.,0.));
#651=DIRECTION('',(6.54612632444078E-17,0.,-1.));
#652=DIRECTION('',(0.,-1.,0.));
#653=DIRECTION('',(0.,0.,-1.));
#654=DIRECTION('',(1.,0.,0.));
#655=DIRECTION('',(0.,-1.,0.));
#656=DIRECTION('',(0.,0.,-1.));
#657=DIRECTION('',(0.,0.,-1.));
#658=DIRECTION('',(0.,-1.,0.));
#659=DIRECTION('',(0.,0.,-1.));
#660=DIRECTION('',(1.,0.,0.));
#661=DIRECTION('',(0.,-1.,0.));
#662=DIRECTION('',(0.,0.,-1.));
#663=DIRECTION('',(6.54612632444078E-17,0.,-1.));
#664=DIRECTION('',(-1.,0.,0.));
#665=DIRECTION('',(3.46944695195362E-16,0.,-1.));
#666=DIRECTION('',(-1.,0.,0.));
#667=DIRECTION('',(0.,0.,1.));
#668=DIRECTION('',(1.,0.,0.));
#669=DIRECTION('',(0.,1.,0.));
#670=DIRECTION('',(1.,0.,0.));
#671=DIRECTION('',(0.,1.,0.));
#672=DIRECTION('',(0.,0.,1.));
#673=DIRECTION('',(1.,0.,0.));
#674=DIRECTION('',(0.,1.,0.));
#675=DIRECTION('',(1.,0.,0.));
#676=DIRECTION('',(0.,1.,0.));
#677=DIRECTION('',(0.,0.,-1.));
#678=DIRECTION('',(-1.,0.,0.));
#679=DIRECTION('',(0.,-1.,0.));
#680=DIRECTION('',(0.,-1.,0.));
#681=DIRECTION('',(1.,0.,3.1540426835942E-16));
#682=DIRECTION('',(3.1540426835942E-16,0.,-1.));
#683=DIRECTION('',(0.,-1.,0.));
#684=DIRECTION('',(0.,0.,-1.));
#685=DIRECTION('',(-1.,0.,0.));
#686=DIRECTION('',(0.,-1.,0.));
#687=DIRECTION('',(1.,0.,1.5770213417971E-16));
#688=DIRECTION('',(1.5770213417971E-16,0.,-1.));
#689=DIRECTION('',(0.,0.,-1.));
#690=DIRECTION('',(-1.,0.,0.));
#691=DIRECTION('',(0.,-1.,0.));
#692=DIRECTION('',(0.,0.,-1.));
#693=DIRECTION('',(-1.,0.,0.));
#694=DIRECTION('',(0.,-1.,0.));
#695=DIRECTION('',(1.,0.,3.46944695195362E-16));
#696=DIRECTION('',(3.46944695195362E-16,0.,-1.));
#697=DIRECTION('',(0.,-1.,0.));
#698=DIRECTION('',(0.,0.,-1.));
#699=DIRECTION('',(-1.,0.,0.));
#700=DIRECTION('',(0.,0.,-1.));
#701=DIRECTION('',(-1.,0.,0.));
#702=DIRECTION('',(0.,-1.,0.));
#703=DIRECTION('',(1.,0.,0.));
#704=DIRECTION('',(0.,0.,-1.));
#705=DIRECTION('',(0.,1.,0.));
#706=DIRECTION('',(0.,0.,-1.));
#707=DIRECTION('',(0.,1.,0.));
#708=DIRECTION('',(1.,0.,6.54612632444078E-17));
#709=DIRECTION('',(6.54612632444078E-17,0.,-1.));
#710=DIRECTION('',(6.54612632444078E-17,0.,-1.));
#711=DIRECTION('',(0.,1.,0.));
#712=DIRECTION('',(1.,0.,6.54612632444078E-17));
#713=DIRECTION('',(6.54612632444078E-17,0.,-1.));
#714=DIRECTION('',(0.,1.,0.));
#715=DIRECTION('',(6.54612632444078E-17,0.,-1.));
#716=DIRECTION('',(0.,-1.,0.));
#717=DIRECTION('',(0.,0.,-1.));
#718=DIRECTION('',(0.,1.,0.));
#719=DIRECTION('',(0.,0.,1.));
#720=DIRECTION('',(0.,1.,0.));
#721=DIRECTION('',(-1.,0.,0.));
#722=DIRECTION('',(0.,-1.,0.));
#723=DIRECTION('',(0.,0.,-1.));
#724=DIRECTION('',(0.,1.,0.));
#725=DIRECTION('',(0.,0.,1.));
#726=DIRECTION('',(0.,1.,0.));
#727=DIRECTION('',(-1.,0.,0.));
#728=DIRECTION('',(0.,-1.,0.));
#729=DIRECTION('',(0.,0.,-1.));
#730=DIRECTION('',(0.,1.,0.));
#731=DIRECTION('',(0.,0.,1.));
#732=DIRECTION('',(0.,1.,0.));
#733=DIRECTION('',(-1.,0.,0.));
#734=DIRECTION('',(0.,-1.,0.));
#735=DIRECTION('',(0.,0.,-1.));
#736=DIRECTION('',(0.,1.,0.));
#737=DIRECTION('',(0.,0.,1.));
#738=DIRECTION('',(0.,1.,0.));
#739=DIRECTION('',(-1.,0.,0.));
#740=DIRECTION('',(0.,1.,0.));
#741=DIRECTION('',(0.,0.,1.));
#742=DIRECTION('',(0.,-1.,0.));
#743=DIRECTION('',(0.,0.,-1.));
#744=DIRECTION('',(-6.54612632444078E-17,0.,1.));
#745=DIRECTION('',(1.,0.,6.54612632444078E-17));
#746=DIRECTION('',(0.,0.,-1.));
#747=DIRECTION('',(-1.,0.,0.));
#748=DIRECTION('',(-1.,0.,0.));
#749=DIRECTION('',(0.,0.,1.));
#750=DIRECTION('',(-1.,0.,0.));
#751=DIRECTION('',(0.,0.,1.));
#752=DIRECTION('',(0.,-1.,0.));
#753=DIRECTION('',(0.,0.,-1.));
#754=DIRECTION('',(0.,-1.,0.));
#755=DIRECTION('',(0.,0.,-1.));
#756=DIRECTION('',(-1.,0.,0.));
#757=DIRECTION('',(0.,0.,1.));
#758=DIRECTION('',(1.,0.,0.));
#759=DIRECTION('',(0.,0.,-1.));
#760=DIRECTION('',(0.,0.,-1.));
#761=DIRECTION('',(-1.,0.,0.));
#762=DIRECTION('',(0.,1.74344067937367E-15,-1.));
#763=DIRECTION('',(0.,1.,1.74344067937367E-15));
#764=DIRECTION('',(0.,1.,0.));
#765=DIRECTION('',(0.,0.,1.));
#766=DIRECTION('',(0.,-1.,0.));
#767=DIRECTION('',(0.,0.,-1.));
#768=DIRECTION('',(0.,0.,-1.));
#769=DIRECTION('',(-1.,0.,0.));
#770=DIRECTION('',(0.,0.,1.));
#771=DIRECTION('',(1.,0.,0.));
#772=DIRECTION('',(1.,0.,0.));
#773=DIRECTION('',(0.,0.,-1.));
#774=DIRECTION('',(1.,0.,0.));
#775=DIRECTION('',(0.,0.,-1.));
#776=DIRECTION('',(1.,0.,0.));
#777=DIRECTION('',(0.,0.,-1.));
#778=DIRECTION('',(-1.,0.,1.74344067937367E-15));
#779=DIRECTION('',(1.74344067937367E-15,0.,1.));
#780=DIRECTION('',(-6.54612632444078E-17,0.,1.));
#781=DIRECTION('',(1.,0.,6.54612632444078E-17));
#782=DIRECTION('',(0.,0.,1.));
#783=DIRECTION('',(1.,0.,0.));
#784=DIRECTION('',(-1.74344067937367E-15,-1.,0.));
#785=DIRECTION('',(1.,-1.74344067937367E-15,0.));
#786=DIRECTION('',(0.,-1.,0.));
#787=DIRECTION('',(0.,0.,-1.));
#788=DIRECTION('',(0.,-1.,0.));
#789=DIRECTION('',(0.,0.,-1.));
#790=CARTESIAN_POINT('',(0.,0.,0.));
#791=CARTESIAN_POINT('',(0.0163400895893574,-0.0028,-0.000353749528527257));
#792=CARTESIAN_POINT('',(-0.0176599104106426,-0.0028,-0.00485374952852725));
#793=CARTESIAN_POINT('',(-0.0206699104106426,-0.0028,-0.00485374952852725));
#794=CARTESIAN_POINT('',(-0.0151599104106427,-0.0028,-0.00485374952852725));
#795=CARTESIAN_POINT('',(-0.0206699104106426,-0.0028,-0.0268537495285272));
#796=CARTESIAN_POINT('',(-0.0206699104106426,-0.0028,-0.0248637495285273));
#797=CARTESIAN_POINT('',(0.0553400895893574,-0.0028,-0.0248637495285273));
#798=CARTESIAN_POINT('',(0.0533500895893574,-0.0028,-0.0248637495285273));
#799=CARTESIAN_POINT('',(0.0533500895893574,-0.0028,-0.000353749528527257));
#800=CARTESIAN_POINT('',(0.0533500895893574,-0.0028,0.0241562504714728));
#801=CARTESIAN_POINT('',(0.0163400895893574,-0.0028,0.0241562504714728));
#802=CARTESIAN_POINT('',(-0.0206699104106426,-0.0028,0.0241562504714728));
#803=CARTESIAN_POINT('',(-0.0206699104106426,-0.0028,0.00514625047147275));
#804=CARTESIAN_POINT('',(-0.0206699104106426,-0.0028,0.00514625047147275));
#805=CARTESIAN_POINT('',(-0.0176599104106426,-0.0028,0.00514625047147275));
#806=CARTESIAN_POINT('',(-0.0151599104106427,-0.0028,0.00514625047147275));
#807=CARTESIAN_POINT('',(-0.0151599104106427,-0.0028,0.000146250471472748));
#808=CARTESIAN_POINT('',(0.0203400895893574,-0.0028,-0.0228537495285272));
#809=CARTESIAN_POINT('',(-0.0111599104106426,-0.0028,-0.0228537495285272));
#810=CARTESIAN_POINT('',(0.0518400895893574,-0.0028,-0.0228537495285272));
#811=CARTESIAN_POINT('',(-0.0111599104106426,-0.0028,-0.000853749528527254));
#812=CARTESIAN_POINT('',(-0.0111599104106426,-0.0028,0.0211462504714727));
#813=CARTESIAN_POINT('',(0.0203400895893574,-0.0028,0.0211462504714727));
#814=CARTESIAN_POINT('',(0.0518400895893574,-0.0028,0.0211462504714727));
#815=CARTESIAN_POINT('',(0.0518400895893574,-0.0028,-0.000853749528527254));
#816=CARTESIAN_POINT('',(0.0163400895893574,0.,-0.000353749528527257));
#817=CARTESIAN_POINT('',(-0.0211749179506164,0.,0.0245127587654439));
#818=CARTESIAN_POINT('',(-0.0211749179506164,0.,0.0255077587654439));
#819=CARTESIAN_POINT('',(0.053940296187094,0.,-0.0251466829829644));
#820=CARTESIAN_POINT('',(0.053940296187094,0.,-0.0241516829829644));
#821=CARTESIAN_POINT('',(0.0538312371345223,0.,0.0245347722589181));
#822=CARTESIAN_POINT('',(0.0538312371345223,0.,0.0255297722589181));
#823=CARTESIAN_POINT('',(-0.0211347403552165,0.,-0.0252577062765971));
#824=CARTESIAN_POINT('',(-0.0211347403552165,0.,-0.0242627062765971));
#825=CARTESIAN_POINT('',(-0.0111599104106426,0.,-0.000853749528527254));
#826=CARTESIAN_POINT('',(-0.0111599104106426,0.,0.0211462504714727));
#827=CARTESIAN_POINT('',(-0.0111599104106426,0.,-0.0228537495285272));
#828=CARTESIAN_POINT('',(0.0203400895893574,0.,-0.0228537495285272));
#829=CARTESIAN_POINT('',(0.0518400895893574,0.,-0.0228537495285272));
#830=CARTESIAN_POINT('',(0.0518400895893574,0.,-0.000853749528527254));
#831=CARTESIAN_POINT('',(0.0518400895893574,0.,0.0211462504714727));
#832=CARTESIAN_POINT('',(0.0203400895893574,0.,0.0211462504714727));
#833=CARTESIAN_POINT('',(-0.0226599104106427,0.,-0.000353749528527257));
#834=CARTESIAN_POINT('',(-0.0226599104106427,0.,0.0241562504714728));
#835=CARTESIAN_POINT('',(-0.0226599104106427,0.,0.00514625047147275));
#836=CARTESIAN_POINT('',(-0.0206699104106426,0.,0.0241562504714728));
#837=CARTESIAN_POINT('',(-0.0206699104106426,0.,0.0261462504714728));
#838=CARTESIAN_POINT('',(0.0163400895893574,0.,0.0261462504714728));
#839=CARTESIAN_POINT('',(0.0533500895893574,0.,0.0261462504714728));
#840=CARTESIAN_POINT('',(0.0533500895893574,0.,0.0241562504714728));
#841=CARTESIAN_POINT('',(0.0553400895893574,0.,0.0241562504714728));
#842=CARTESIAN_POINT('',(0.0553400895893574,0.,-0.000353749528527259));
#843=CARTESIAN_POINT('',(0.0553400895893574,0.,-0.0248637495285273));
#844=CARTESIAN_POINT('',(0.0533500895893574,0.,-0.0248637495285273));
#845=CARTESIAN_POINT('',(0.0533500895893574,0.,-0.0268537495285272));
#846=CARTESIAN_POINT('',(0.0163400895893574,0.,-0.0268537495285272));
#847=CARTESIAN_POINT('',(-0.0206699104106426,0.,-0.0268537495285272));
#848=CARTESIAN_POINT('',(-0.0206699104106426,0.,-0.0248637495285273));
#849=CARTESIAN_POINT('',(-0.0226599104106427,0.,-0.0248637495285273));
#850=CARTESIAN_POINT('',(-0.0226599104106427,0.,-0.000353749528527257));
#851=CARTESIAN_POINT('',(-0.0226599104106427,0.,-0.00485374952852725));
#852=CARTESIAN_POINT('',(-0.0176599104106426,0.,-0.00485374952852725));
#853=CARTESIAN_POINT('',(-0.0151599104106427,0.,-0.00485374952852725));
#854=CARTESIAN_POINT('',(-0.0151599104106427,0.,0.000146250471472748));
#855=CARTESIAN_POINT('',(-0.0151599104106427,0.,0.00514625047147275));
#856=CARTESIAN_POINT('',(-0.0176599104106426,0.,0.00514625047147275));
#857=CARTESIAN_POINT('',(0.0163400895893574,-0.0028,0.0261462504714728));
#858=CARTESIAN_POINT('',(-0.0206699104106426,-0.0028,0.0261462504714728));
#859=CARTESIAN_POINT('',(-0.0206699104106426,-0.00081,0.0261462504714728));
#860=CARTESIAN_POINT('',(0.0163400895893574,-0.00081,0.0261462504714728));
#861=CARTESIAN_POINT('',(0.0533500895893574,-0.00081,0.0261462504714728));
#862=CARTESIAN_POINT('',(0.0533500895893574,-0.0028,0.0261462504714728));
#863=CARTESIAN_POINT('',(0.0163400895893574,-0.0028,-0.0268537495285272));
#864=CARTESIAN_POINT('',(0.0533500895893574,-0.0028,-0.0268537495285272));
#865=CARTESIAN_POINT('',(0.0533500895893574,-0.00081,-0.0268537495285272));
#866=CARTESIAN_POINT('',(-0.0226599104106427,-0.00081,-0.0268537495285272));
#867=CARTESIAN_POINT('',(-0.0206699104106426,-0.00081,-0.0268537495285272));
#868=CARTESIAN_POINT('',(-0.0206699104106426,-0.0028,-0.0268537495285272));
#869=CARTESIAN_POINT('',(0.0203400895893574,0.0222,0.0211462504714727));
#870=CARTESIAN_POINT('',(0.0518400895893574,0.0222,0.0211462504714727));
#871=CARTESIAN_POINT('',(-0.0111599104106426,0.0222,0.0211462504714727));
#872=CARTESIAN_POINT('',(0.0518400895893574,0.0222,-0.000853749528527254));
#873=CARTESIAN_POINT('',(0.0518400895893574,0.0222,-0.0228537495285272));
#874=CARTESIAN_POINT('',(0.0203400895893574,0.0222,-0.0228537495285272));
#875=CARTESIAN_POINT('',(-0.0111599104106426,0.0222,-0.0228537495285272));
#876=CARTESIAN_POINT('',(-0.0111599104106426,0.0222,-0.000853749528527254));
#877=CARTESIAN_POINT('',(-0.0176599104106426,0.0222,-0.00485374952852725));
#878=CARTESIAN_POINT('',(-0.0226599104106427,0.0222,-0.00485374952852725));
#879=CARTESIAN_POINT('',(-0.0226599104106427,-0.00081,-0.00485374952852725));
#880=CARTESIAN_POINT('',(-0.0206699104106426,-0.00081,-0.00485374952852725));
#881=CARTESIAN_POINT('',(-0.0151599104106427,0.0222,-0.00485374952852725));
#882=CARTESIAN_POINT('',(-0.0151599104106427,0.0222,0.000146250471472748));
#883=CARTESIAN_POINT('',(-0.0151599104106427,0.0222,0.00514625047147275));
#884=CARTESIAN_POINT('',(-0.0176599104106426,0.0222,0.00514625047147275));
#885=CARTESIAN_POINT('',(-0.0206699104106426,-0.00081,0.00514625047147275));
#886=CARTESIAN_POINT('',(-0.0226599104106427,-0.00081,0.00514625047147275));
#887=CARTESIAN_POINT('',(-0.0226599104106427,0.0222,0.00514625047147275));
#888=CARTESIAN_POINT('',(0.0553400895893574,-0.0028,-0.000353749528527259));
#889=CARTESIAN_POINT('',(0.0553400895893574,-0.0028,0.0241562504714728));
#890=CARTESIAN_POINT('',(0.0553400895893574,-0.00081,0.0241562504714728));
#891=CARTESIAN_POINT('',(0.0553400895893574,-0.00081,-0.000353749528527259));
#892=CARTESIAN_POINT('',(0.0553400895893574,-0.00081,-0.0248637495285273));
#893=CARTESIAN_POINT('',(0.0553400895893574,0.,-0.0248637495285273));
#894=CARTESIAN_POINT('',(-0.0226599104106427,-0.0028,-0.000353749528527257));
#895=CARTESIAN_POINT('',(-0.0226599104106427,-0.00081,0.0261462504714728));
#896=CARTESIAN_POINT('',(-0.0226599104106427,-0.00081,0.0241562504714728));
#897=CARTESIAN_POINT('',(-0.0226599104106427,0.,0.0241562504714728));
#898=CARTESIAN_POINT('',(-0.0226599104106427,-0.0028,-0.000353749528527257));
#899=CARTESIAN_POINT('',(-0.0226599104106427,-0.0028,-0.0248637495285273));
#900=CARTESIAN_POINT('',(-0.0226599104106427,-0.00081,-0.0248637495285273));
#901=CARTESIAN_POINT('',(-0.0226599104106427,-0.00081,-0.00485374952852725));
#902=CARTESIAN_POINT('',(-0.0211347403552165,0.005,-0.0252577062765971));
#903=CARTESIAN_POINT('',(-0.0211347403552165,0.005,-0.0252577062765971));
#904=CARTESIAN_POINT('',(-0.0211347403552165,0.005,-0.0242627062765971));
#905=CARTESIAN_POINT('',(0.0163400895893574,0.005,-0.000353749528527257));
#906=CARTESIAN_POINT('',(0.0538312371345223,0.005,0.0245347722589181));
#907=CARTESIAN_POINT('',(0.0538312371345223,0.005,0.0245347722589181));
#908=CARTESIAN_POINT('',(0.0538312371345223,0.005,0.0255297722589181));
#909=CARTESIAN_POINT('',(0.0163400895893574,0.005,-0.000353749528527257));
#910=CARTESIAN_POINT('',(0.053940296187094,0.005,-0.0251466829829644));
#911=CARTESIAN_POINT('',(0.053940296187094,0.005,-0.0251466829829644));
#912=CARTESIAN_POINT('',(0.053940296187094,0.005,-0.0241516829829644));
#913=CARTESIAN_POINT('',(0.0163400895893574,0.005,-0.000353749528527257));
#914=CARTESIAN_POINT('',(-0.0211749179506164,0.005,0.0245127587654439));
#915=CARTESIAN_POINT('',(-0.0211749179506164,0.005,0.0245127587654439));
#916=CARTESIAN_POINT('',(-0.0211749179506164,0.005,0.0255077587654439));
#917=CARTESIAN_POINT('',(0.0163400895893574,0.005,-0.000353749528527257));
#918=CARTESIAN_POINT('',(-0.0206699104106426,-0.0028,-0.0248637495285273));
#919=CARTESIAN_POINT('',(-0.0206699104106426,-0.00081,-0.0248637495285273));
#920=CARTESIAN_POINT('',(-0.0206699104106426,-0.00081,-0.000353749528527259));
#921=CARTESIAN_POINT('',(-0.0206699104106426,-0.00081,-0.0248637495285273));
#922=CARTESIAN_POINT('',(-0.0206699104106426,-0.00081,-0.0248637495285273));
#923=CARTESIAN_POINT('',(-0.0206699104106426,-0.00081,-0.0248637495285273));
#924=CARTESIAN_POINT('',(0.0533500895893574,-0.0028,-0.0248637495285273));
#925=CARTESIAN_POINT('',(0.0533500895893574,-0.00081,-0.0248637495285273));
#926=CARTESIAN_POINT('',(0.0163400895893574,-0.00081,-0.0248637495285273));
#927=CARTESIAN_POINT('',(0.0533500895893574,-0.00081,-0.0248637495285273));
#928=CARTESIAN_POINT('',(0.0533500895893574,-0.00081,-0.0248637495285273));
#929=CARTESIAN_POINT('',(0.0533500895893574,-0.00081,-0.0248637495285273));
#930=CARTESIAN_POINT('',(0.0533500895893574,-0.0028,0.0241562504714728));
#931=CARTESIAN_POINT('',(0.0533500895893574,-0.00081,0.0241562504714728));
#932=CARTESIAN_POINT('',(0.0533500895893574,-0.00081,-0.000353749528527259));
#933=CARTESIAN_POINT('',(0.0533500895893574,-0.00081,0.0241562504714728));
#934=CARTESIAN_POINT('',(0.0533500895893574,-0.00081,0.0241562504714728));
#935=CARTESIAN_POINT('',(0.0533500895893574,-0.00081,0.0241562504714728));
#936=CARTESIAN_POINT('',(0.0163400895893574,-0.00081,0.0241562504714728));
#937=CARTESIAN_POINT('',(-0.0206699104106426,-0.00081,0.0241562504714728));
#938=CARTESIAN_POINT('',(-0.0206699104106426,-0.00081,-0.000353749528527259));
#939=CARTESIAN_POINT('',(-0.0206699104106426,-0.00081,0.0241562504714728));
#940=CARTESIAN_POINT('',(-0.0206699104106426,-0.00081,0.0241562504714728));
#941=CARTESIAN_POINT('',(-0.0206699104106426,-0.00081,0.0241562504714728));
#942=CARTESIAN_POINT('',(-0.0206699104106426,-0.0028,0.0241562504714728));
#943=MECHANICAL_DESIGN_GEOMETRIC_PRESENTATION_REPRESENTATION('',(#548),
#944);
#944=(
GEOMETRIC_REPRESENTATION_CONTEXT(3)
GLOBAL_UNCERTAINTY_ASSIGNED_CONTEXT((#945))
GLOBAL_UNIT_ASSIGNED_CONTEXT((#948,#947,#946))
REPRESENTATION_CONTEXT('top tft','TOP_LEVEL_ASSEMBLY_PART')
);
#945=UNCERTAINTY_MEASURE_WITH_UNIT(LENGTH_MEASURE(1.E-8),#948,
'DISTANCE_ACCURACY_VALUE','Maximum Tolerance applied to model');
#946=(
NAMED_UNIT(*)
SI_UNIT($,.STERADIAN.)
SOLID_ANGLE_UNIT()
);
#947=(
NAMED_UNIT(*)
PLANE_ANGLE_UNIT()
SI_UNIT($,.RADIAN.)
);
#948=(
LENGTH_UNIT()
NAMED_UNIT(*)
SI_UNIT($,.METRE.)
);
#949=PRODUCT_DEFINITION_SHAPE('','',#950);
#950=PRODUCT_DEFINITION('','',#952,#951);
#951=PRODUCT_DEFINITION_CONTEXT('',#958,'design');
#952=PRODUCT_DEFINITION_FORMATION_WITH_SPECIFIED_SOURCE('','',#954,
 .NOT_KNOWN.);
#953=PRODUCT_RELATED_PRODUCT_CATEGORY('','',(#954));
#954=PRODUCT('top tft','top tft','top tft',(#956));
#955=PRODUCT_CATEGORY('','');
#956=PRODUCT_CONTEXT('',#958,'mechanical');
#957=APPLICATION_PROTOCOL_DEFINITION('international standard',
'ap242_managed_model_based_3d_engineering',2020,#958);
#958=APPLICATION_CONTEXT('managed model based 3d engineering');
ENDSEC;
END-ISO-10303-21;
