ISO-10303-21;
HEADER;
/* Generated by software containing ST-Developer
 * from STEP Tools, Inc. (www.steptools.com) 
 */
/* OPTION: using custom renumber hook */

FILE_DESCRIPTION(
/* description */ ('STEP AP242 Edition 2',
'CAx-IF Rec.Pracs.---Representation and Presentation of Product Manufa
cturing Information (PMI)---4.0---2014-10-13',
'CAx-IF Rec.Pracs.---3D Tessellated Geometry---0.4---2014-09-14','2;1',
'CAx-IF Rec.Pracs.---User Defined Attributes---1.5---2016-08-15'),
/* implementation_level */ '2;1');

FILE_NAME(
/* name */ 'Part Studio 1 - Part 2',
/* time_stamp */ '2026-08-21T18:43:04Z',
/* author */ (''),
/* organization */ (''),
/* preprocessor_version */ 'ST-DEVELOPER v20',
/* originating_system */ 'ONSHAPE BY PTC INC, 1.219',
/* authorisation */ '  ');

FILE_SCHEMA (('AP242_MANAGED_MODEL_BASED_3D_ENGINEERING_MIM_LF { 1 0 10303 442 3 1 4 }'));
ENDSEC;

DATA;
#10=SHAPE_REPRESENTATION_RELATIONSHIP('','',#539,#11);
#11=ADVANCED_BREP_SHAPE_REPRESENTATION('',(#537),#909);
#12=SPHERICAL_SURFACE('',#577,0.00199);
#13=SPHERICAL_SURFACE('',#588,0.00199);
#14=SPHERICAL_SURFACE('',#590,0.00199);
#15=SPHERICAL_SURFACE('',#596,0.00199);
#16=CYLINDRICAL_SURFACE('',#563,0.001);
#17=CYLINDRICAL_SURFACE('',#566,0.001);
#18=CYLINDRICAL_SURFACE('',#569,0.001);
#19=CYLINDRICAL_SURFACE('',#572,0.001);
#20=CYLINDRICAL_SURFACE('',#575,0.00199);
#21=CYLINDRICAL_SURFACE('',#580,0.00199);
#22=CYLINDRICAL_SURFACE('',#582,0.00199);
#23=CYLINDRICAL_SURFACE('',#584,0.00199);
#24=CYLINDRICAL_SURFACE('',#586,0.00199);
#25=CYLINDRICAL_SURFACE('',#592,0.00199);
#26=CYLINDRICAL_SURFACE('',#594,0.00199);
#27=CYLINDRICAL_SURFACE('',#598,0.00199);
#28=CIRCLE('',#543,0.001);
#29=CIRCLE('',#544,0.001);
#30=CIRCLE('',#545,0.001);
#31=CIRCLE('',#546,0.001);
#32=CIRCLE('',#547,0.00199);
#33=CIRCLE('',#548,0.00199);
#34=CIRCLE('',#549,0.00199);
#35=CIRCLE('',#550,0.00199);
#36=CIRCLE('',#564,0.001);
#37=CIRCLE('',#567,0.001);
#38=CIRCLE('',#570,0.001);
#39=CIRCLE('',#573,0.001);
#40=CIRCLE('',#576,0.00199);
#41=CIRCLE('',#578,0.00199);
#42=CIRCLE('',#579,0.00199);
#43=CIRCLE('',#581,0.00199);
#44=CIRCLE('',#583,0.00199);
#45=CIRCLE('',#585,0.00199);
#46=CIRCLE('',#587,0.00199);
#47=CIRCLE('',#589,0.00199);
#48=CIRCLE('',#591,0.00199);
#49=CIRCLE('',#593,0.00199);
#50=CIRCLE('',#595,0.00199);
#51=CIRCLE('',#597,0.00199);
#52=ORIENTED_EDGE('',*,*,#188,.T.);
#53=ORIENTED_EDGE('',*,*,#189,.T.);
#54=ORIENTED_EDGE('',*,*,#190,.T.);
#55=ORIENTED_EDGE('',*,*,#191,.T.);
#56=ORIENTED_EDGE('',*,*,#192,.F.);
#57=ORIENTED_EDGE('',*,*,#193,.T.);
#58=ORIENTED_EDGE('',*,*,#194,.T.);
#59=ORIENTED_EDGE('',*,*,#195,.F.);
#60=ORIENTED_EDGE('',*,*,#196,.F.);
#61=ORIENTED_EDGE('',*,*,#197,.F.);
#62=ORIENTED_EDGE('',*,*,#198,.F.);
#63=ORIENTED_EDGE('',*,*,#199,.F.);
#64=ORIENTED_EDGE('',*,*,#190,.F.);
#65=ORIENTED_EDGE('',*,*,#200,.T.);
#66=ORIENTED_EDGE('',*,*,#201,.T.);
#67=ORIENTED_EDGE('',*,*,#202,.T.);
#68=ORIENTED_EDGE('',*,*,#203,.T.);
#69=ORIENTED_EDGE('',*,*,#204,.T.);
#70=ORIENTED_EDGE('',*,*,#205,.F.);
#71=ORIENTED_EDGE('',*,*,#206,.T.);
#72=ORIENTED_EDGE('',*,*,#207,.F.);
#73=ORIENTED_EDGE('',*,*,#208,.T.);
#74=ORIENTED_EDGE('',*,*,#209,.T.);
#75=ORIENTED_EDGE('',*,*,#210,.F.);
#76=ORIENTED_EDGE('',*,*,#201,.F.);
#77=ORIENTED_EDGE('',*,*,#211,.T.);
#78=ORIENTED_EDGE('',*,*,#212,.T.);
#79=ORIENTED_EDGE('',*,*,#213,.T.);
#80=ORIENTED_EDGE('',*,*,#203,.F.);
#81=ORIENTED_EDGE('',*,*,#214,.T.);
#82=ORIENTED_EDGE('',*,*,#215,.T.);
#83=ORIENTED_EDGE('',*,*,#216,.T.);
#84=ORIENTED_EDGE('',*,*,#205,.T.);
#85=ORIENTED_EDGE('',*,*,#217,.T.);
#86=ORIENTED_EDGE('',*,*,#218,.T.);
#87=ORIENTED_EDGE('',*,*,#219,.T.);
#88=ORIENTED_EDGE('',*,*,#220,.T.);
#89=ORIENTED_EDGE('',*,*,#221,.T.);
#90=ORIENTED_EDGE('',*,*,#222,.T.);
#91=ORIENTED_EDGE('',*,*,#223,.T.);
#92=ORIENTED_EDGE('',*,*,#224,.F.);
#93=ORIENTED_EDGE('',*,*,#225,.T.);
#94=ORIENTED_EDGE('',*,*,#226,.T.);
#95=ORIENTED_EDGE('',*,*,#227,.F.);
#96=ORIENTED_EDGE('',*,*,#208,.F.);
#97=ORIENTED_EDGE('',*,*,#228,.T.);
#98=ORIENTED_EDGE('',*,*,#229,.T.);
#99=ORIENTED_EDGE('',*,*,#230,.F.);
#100=ORIENTED_EDGE('',*,*,#231,.F.);
#101=ORIENTED_EDGE('',*,*,#228,.F.);
#102=ORIENTED_EDGE('',*,*,#207,.T.);
#103=ORIENTED_EDGE('',*,*,#232,.T.);
#104=ORIENTED_EDGE('',*,*,#233,.F.);
#105=ORIENTED_EDGE('',*,*,#232,.F.);
#106=ORIENTED_EDGE('',*,*,#210,.T.);
#107=ORIENTED_EDGE('',*,*,#234,.T.);
#108=ORIENTED_EDGE('',*,*,#235,.T.);
#109=ORIENTED_EDGE('',*,*,#234,.F.);
#110=ORIENTED_EDGE('',*,*,#209,.F.);
#111=ORIENTED_EDGE('',*,*,#227,.T.);
#112=ORIENTED_EDGE('',*,*,#226,.F.);
#113=ORIENTED_EDGE('',*,*,#236,.T.);
#114=ORIENTED_EDGE('',*,*,#195,.T.);
#115=ORIENTED_EDGE('',*,*,#237,.F.);
#116=ORIENTED_EDGE('',*,*,#229,.F.);
#117=ORIENTED_EDGE('',*,*,#231,.T.);
#118=ORIENTED_EDGE('',*,*,#233,.T.);
#119=ORIENTED_EDGE('',*,*,#235,.F.);
#120=ORIENTED_EDGE('',*,*,#224,.T.);
#121=ORIENTED_EDGE('',*,*,#238,.T.);
#122=ORIENTED_EDGE('',*,*,#193,.F.);
#123=ORIENTED_EDGE('',*,*,#239,.F.);
#124=ORIENTED_EDGE('',*,*,#239,.T.);
#125=ORIENTED_EDGE('',*,*,#192,.T.);
#126=ORIENTED_EDGE('',*,*,#236,.F.);
#127=ORIENTED_EDGE('',*,*,#225,.F.);
#128=ORIENTED_EDGE('',*,*,#230,.T.);
#129=ORIENTED_EDGE('',*,*,#237,.T.);
#130=ORIENTED_EDGE('',*,*,#194,.F.);
#131=ORIENTED_EDGE('',*,*,#238,.F.);
#132=ORIENTED_EDGE('',*,*,#240,.F.);
#133=ORIENTED_EDGE('',*,*,#199,.T.);
#134=ORIENTED_EDGE('',*,*,#240,.T.);
#135=ORIENTED_EDGE('',*,*,#241,.F.);
#136=ORIENTED_EDGE('',*,*,#198,.T.);
#137=ORIENTED_EDGE('',*,*,#241,.T.);
#138=ORIENTED_EDGE('',*,*,#242,.F.);
#139=ORIENTED_EDGE('',*,*,#197,.T.);
#140=ORIENTED_EDGE('',*,*,#242,.T.);
#141=ORIENTED_EDGE('',*,*,#243,.F.);
#142=ORIENTED_EDGE('',*,*,#196,.T.);
#143=ORIENTED_EDGE('',*,*,#243,.T.);
#144=ORIENTED_EDGE('',*,*,#244,.F.);
#145=ORIENTED_EDGE('',*,*,#217,.F.);
#146=ORIENTED_EDGE('',*,*,#204,.F.);
#147=ORIENTED_EDGE('',*,*,#216,.F.);
#148=ORIENTED_EDGE('',*,*,#245,.F.);
#149=ORIENTED_EDGE('',*,*,#244,.T.);
#150=ORIENTED_EDGE('',*,*,#246,.F.);
#151=ORIENTED_EDGE('',*,*,#202,.F.);
#152=ORIENTED_EDGE('',*,*,#213,.F.);
#153=ORIENTED_EDGE('',*,*,#247,.F.);
#154=ORIENTED_EDGE('',*,*,#214,.F.);
#155=ORIENTED_EDGE('',*,*,#246,.T.);
#156=ORIENTED_EDGE('',*,*,#215,.F.);
#157=ORIENTED_EDGE('',*,*,#248,.F.);
#158=ORIENTED_EDGE('',*,*,#222,.F.);
#159=ORIENTED_EDGE('',*,*,#245,.T.);
#160=ORIENTED_EDGE('',*,*,#221,.F.);
#161=ORIENTED_EDGE('',*,*,#249,.F.);
#162=ORIENTED_EDGE('',*,*,#218,.F.);
#163=ORIENTED_EDGE('',*,*,#206,.F.);
#164=ORIENTED_EDGE('',*,*,#219,.F.);
#165=ORIENTED_EDGE('',*,*,#250,.F.);
#166=ORIENTED_EDGE('',*,*,#191,.F.);
#167=ORIENTED_EDGE('',*,*,#248,.T.);
#168=ORIENTED_EDGE('',*,*,#247,.T.);
#169=ORIENTED_EDGE('',*,*,#251,.F.);
#170=ORIENTED_EDGE('',*,*,#250,.T.);
#171=ORIENTED_EDGE('',*,*,#249,.T.);
#172=ORIENTED_EDGE('',*,*,#252,.F.);
#173=ORIENTED_EDGE('',*,*,#251,.T.);
#174=ORIENTED_EDGE('',*,*,#212,.F.);
#175=ORIENTED_EDGE('',*,*,#253,.F.);
#176=ORIENTED_EDGE('',*,*,#223,.F.);
#177=ORIENTED_EDGE('',*,*,#252,.T.);
#178=ORIENTED_EDGE('',*,*,#220,.F.);
#179=ORIENTED_EDGE('',*,*,#254,.F.);
#180=ORIENTED_EDGE('',*,*,#188,.F.);
#181=ORIENTED_EDGE('',*,*,#254,.T.);
#182=ORIENTED_EDGE('',*,*,#253,.T.);
#183=ORIENTED_EDGE('',*,*,#255,.F.);
#184=ORIENTED_EDGE('',*,*,#200,.F.);
#185=ORIENTED_EDGE('',*,*,#189,.F.);
#186=ORIENTED_EDGE('',*,*,#255,.T.);
#187=ORIENTED_EDGE('',*,*,#211,.F.);
#188=EDGE_CURVE('',#256,#257,#300,.F.);
#189=EDGE_CURVE('',#257,#258,#301,.F.);
#190=EDGE_CURVE('',#258,#259,#302,.T.);
#191=EDGE_CURVE('',#259,#256,#303,.T.);
#192=EDGE_CURVE('',#260,#261,#304,.T.);
#193=EDGE_CURVE('',#260,#262,#305,.T.);
#194=EDGE_CURVE('',#262,#263,#306,.T.);
#195=EDGE_CURVE('',#261,#263,#307,.T.);
#196=EDGE_CURVE('',#264,#264,#28,.T.);
#197=EDGE_CURVE('',#265,#265,#29,.T.);
#198=EDGE_CURVE('',#266,#266,#30,.T.);
#199=EDGE_CURVE('',#267,#267,#31,.T.);
#200=EDGE_CURVE('',#258,#268,#32,.T.);
#201=EDGE_CURVE('',#268,#269,#308,.T.);
#202=EDGE_CURVE('',#269,#270,#33,.T.);
#203=EDGE_CURVE('',#270,#271,#309,.T.);
#204=EDGE_CURVE('',#271,#272,#34,.T.);
#205=EDGE_CURVE('',#273,#272,#310,.T.);
#206=EDGE_CURVE('',#273,#259,#35,.T.);
#207=EDGE_CURVE('',#274,#275,#311,.T.);
#208=EDGE_CURVE('',#274,#276,#312,.T.);
#209=EDGE_CURVE('',#276,#277,#313,.T.);
#210=EDGE_CURVE('',#275,#277,#314,.T.);
#211=EDGE_CURVE('',#268,#278,#315,.T.);
#212=EDGE_CURVE('',#278,#279,#316,.T.);
#213=EDGE_CURVE('',#279,#269,#317,.F.);
#214=EDGE_CURVE('',#270,#280,#318,.T.);
#215=EDGE_CURVE('',#280,#281,#319,.T.);
#216=EDGE_CURVE('',#281,#271,#320,.F.);
#217=EDGE_CURVE('',#272,#282,#321,.T.);
#218=EDGE_CURVE('',#282,#283,#322,.F.);
#219=EDGE_CURVE('',#283,#273,#323,.F.);
#220=EDGE_CURVE('',#284,#285,#324,.T.);
#221=EDGE_CURVE('',#285,#286,#325,.T.);
#222=EDGE_CURVE('',#286,#287,#326,.F.);
#223=EDGE_CURVE('',#287,#284,#327,.F.);
#224=EDGE_CURVE('',#288,#289,#328,.T.);
#225=EDGE_CURVE('',#288,#290,#329,.T.);
#226=EDGE_CURVE('',#290,#291,#330,.T.);
#227=EDGE_CURVE('',#276,#291,#331,.T.);
#228=EDGE_CURVE('',#274,#292,#332,.T.);
#229=EDGE_CURVE('',#292,#293,#333,.T.);
#230=EDGE_CURVE('',#289,#293,#334,.T.);
#231=EDGE_CURVE('',#292,#294,#335,.T.);
#232=EDGE_CURVE('',#275,#294,#336,.T.);
#233=EDGE_CURVE('',#294,#295,#337,.T.);
#234=EDGE_CURVE('',#277,#295,#338,.T.);
#235=EDGE_CURVE('',#291,#295,#339,.T.);
#236=EDGE_CURVE('',#290,#261,#340,.T.);
#237=EDGE_CURVE('',#293,#263,#341,.T.);
#238=EDGE_CURVE('',#289,#262,#342,.T.);
#239=EDGE_CURVE('',#288,#260,#343,.T.);
#240=EDGE_CURVE('',#296,#296,#36,.T.);
#241=EDGE_CURVE('',#297,#297,#37,.T.);
#242=EDGE_CURVE('',#298,#298,#38,.T.);
#243=EDGE_CURVE('',#299,#299,#39,.T.);
#244=EDGE_CURVE('',#282,#281,#40,.T.);
#245=EDGE_CURVE('',#282,#286,#41,.F.);
#246=EDGE_CURVE('',#286,#281,#42,.F.);
#247=EDGE_CURVE('',#280,#279,#43,.T.);
#248=EDGE_CURVE('',#287,#280,#44,.T.);
#249=EDGE_CURVE('',#283,#285,#45,.T.);
#250=EDGE_CURVE('',#256,#283,#46,.T.);
#251=EDGE_CURVE('',#287,#279,#47,.F.);
#252=EDGE_CURVE('',#256,#285,#48,.F.);
#253=EDGE_CURVE('',#284,#278,#49,.T.);
#254=EDGE_CURVE('',#257,#284,#50,.T.);
#255=EDGE_CURVE('',#257,#278,#51,.F.);
#256=VERTEX_POINT('',#764);
#257=VERTEX_POINT('',#765);
#258=VERTEX_POINT('',#767);
#259=VERTEX_POINT('',#769);
#260=VERTEX_POINT('',#772);
#261=VERTEX_POINT('',#773);
#262=VERTEX_POINT('',#775);
#263=VERTEX_POINT('',#777);
#264=VERTEX_POINT('',#781);
#265=VERTEX_POINT('',#783);
#266=VERTEX_POINT('',#785);
#267=VERTEX_POINT('',#787);
#268=VERTEX_POINT('',#789);
#269=VERTEX_POINT('',#791);
#270=VERTEX_POINT('',#793);
#271=VERTEX_POINT('',#795);
#272=VERTEX_POINT('',#797);
#273=VERTEX_POINT('',#799);
#274=VERTEX_POINT('',#802);
#275=VERTEX_POINT('',#803);
#276=VERTEX_POINT('',#805);
#277=VERTEX_POINT('',#807);
#278=VERTEX_POINT('',#811);
#279=VERTEX_POINT('',#813);
#280=VERTEX_POINT('',#817);
#281=VERTEX_POINT('',#819);
#282=VERTEX_POINT('',#823);
#283=VERTEX_POINT('',#825);
#284=VERTEX_POINT('',#829);
#285=VERTEX_POINT('',#830);
#286=VERTEX_POINT('',#832);
#287=VERTEX_POINT('',#834);
#288=VERTEX_POINT('',#838);
#289=VERTEX_POINT('',#839);
#290=VERTEX_POINT('',#841);
#291=VERTEX_POINT('',#843);
#292=VERTEX_POINT('',#846);
#293=VERTEX_POINT('',#848);
#294=VERTEX_POINT('',#852);
#295=VERTEX_POINT('',#856);
#296=VERTEX_POINT('',#870);
#297=VERTEX_POINT('',#874);
#298=VERTEX_POINT('',#878);
#299=VERTEX_POINT('',#882);
#300=LINE('',#763,#344);
#301=LINE('',#766,#345);
#302=LINE('',#768,#346);
#303=LINE('',#770,#347);
#304=LINE('',#771,#348);
#305=LINE('',#774,#349);
#306=LINE('',#776,#350);
#307=LINE('',#778,#351);
#308=LINE('',#790,#352);
#309=LINE('',#794,#353);
#310=LINE('',#798,#354);
#311=LINE('',#801,#355);
#312=LINE('',#804,#356);
#313=LINE('',#806,#357);
#314=LINE('',#808,#358);
#315=LINE('',#810,#359);
#316=LINE('',#812,#360);
#317=LINE('',#814,#361);
#318=LINE('',#816,#362);
#319=LINE('',#818,#363);
#320=LINE('',#820,#364);
#321=LINE('',#822,#365);
#322=LINE('',#824,#366);
#323=LINE('',#826,#367);
#324=LINE('',#828,#368);
#325=LINE('',#831,#369);
#326=LINE('',#833,#370);
#327=LINE('',#835,#371);
#328=LINE('',#837,#372);
#329=LINE('',#840,#373);
#330=LINE('',#842,#374);
#331=LINE('',#844,#375);
#332=LINE('',#845,#376);
#333=LINE('',#847,#377);
#334=LINE('',#849,#378);
#335=LINE('',#851,#379);
#336=LINE('',#853,#380);
#337=LINE('',#855,#381);
#338=LINE('',#857,#382);
#339=LINE('',#859,#383);
#340=LINE('',#861,#384);
#341=LINE('',#862,#385);
#342=LINE('',#864,#386);
#343=LINE('',#865,#387);
#344=VECTOR('',#603,1.);
#345=VECTOR('',#604,1.);
#346=VECTOR('',#605,1.);
#347=VECTOR('',#606,1.);
#348=VECTOR('',#607,1.);
#349=VECTOR('',#608,1.);
#350=VECTOR('',#609,1.);
#351=VECTOR('',#610,1.);
#352=VECTOR('',#623,1.);
#353=VECTOR('',#626,1.);
#354=VECTOR('',#629,1.);
#355=VECTOR('',#632,1.);
#356=VECTOR('',#633,1.);
#357=VECTOR('',#634,1.);
#358=VECTOR('',#635,1.);
#359=VECTOR('',#638,1.);
#360=VECTOR('',#639,1.);
#361=VECTOR('',#640,1.);
#362=VECTOR('',#643,1.);
#363=VECTOR('',#644,1.);
#364=VECTOR('',#645,1.);
#365=VECTOR('',#648,1.);
#366=VECTOR('',#649,1.);
#367=VECTOR('',#650,1.);
#368=VECTOR('',#653,1.);
#369=VECTOR('',#654,1.);
#370=VECTOR('',#655,1.);
#371=VECTOR('',#656,1.);
#372=VECTOR('',#659,1.);
#373=VECTOR('',#660,1.);
#374=VECTOR('',#661,1.);
#375=VECTOR('',#662,1.);
#376=VECTOR('',#663,1.);
#377=VECTOR('',#664,1.);
#378=VECTOR('',#665,1.);
#379=VECTOR('',#668,1.);
#380=VECTOR('',#669,1.);
#381=VECTOR('',#672,1.);
#382=VECTOR('',#673,1.);
#383=VECTOR('',#676,1.);
#384=VECTOR('',#679,1.);
#385=VECTOR('',#680,1.);
#386=VECTOR('',#683,1.);
#387=VECTOR('',#684,1.);
#388=EDGE_LOOP('',(#52,#53,#54,#55));
#389=EDGE_LOOP('',(#56,#57,#58,#59));
#390=EDGE_LOOP('',(#60));
#391=EDGE_LOOP('',(#61));
#392=EDGE_LOOP('',(#62));
#393=EDGE_LOOP('',(#63));
#394=EDGE_LOOP('',(#64,#65,#66,#67,#68,#69,#70,#71));
#395=EDGE_LOOP('',(#72,#73,#74,#75));
#396=EDGE_LOOP('',(#76,#77,#78,#79));
#397=EDGE_LOOP('',(#80,#81,#82,#83));
#398=EDGE_LOOP('',(#84,#85,#86,#87));
#399=EDGE_LOOP('',(#88,#89,#90,#91));
#400=EDGE_LOOP('',(#92,#93,#94,#95,#96,#97,#98,#99));
#401=EDGE_LOOP('',(#100,#101,#102,#103));
#402=EDGE_LOOP('',(#104,#105,#106,#107));
#403=EDGE_LOOP('',(#108,#109,#110,#111));
#404=EDGE_LOOP('',(#112,#113,#114,#115,#116,#117,#118,#119));
#405=EDGE_LOOP('',(#120,#121,#122,#123));
#406=EDGE_LOOP('',(#124,#125,#126,#127));
#407=EDGE_LOOP('',(#128,#129,#130,#131));
#408=EDGE_LOOP('',(#132));
#409=EDGE_LOOP('',(#133));
#410=EDGE_LOOP('',(#134));
#411=EDGE_LOOP('',(#135));
#412=EDGE_LOOP('',(#136));
#413=EDGE_LOOP('',(#137));
#414=EDGE_LOOP('',(#138));
#415=EDGE_LOOP('',(#139));
#416=EDGE_LOOP('',(#140));
#417=EDGE_LOOP('',(#141));
#418=EDGE_LOOP('',(#142));
#419=EDGE_LOOP('',(#143));
#420=EDGE_LOOP('',(#144,#145,#146,#147));
#421=EDGE_LOOP('',(#148,#149,#150));
#422=EDGE_LOOP('',(#151,#152,#153,#154));
#423=EDGE_LOOP('',(#155,#156,#157,#158));
#424=EDGE_LOOP('',(#159,#160,#161,#162));
#425=EDGE_LOOP('',(#163,#164,#165,#166));
#426=EDGE_LOOP('',(#167,#168,#169));
#427=EDGE_LOOP('',(#170,#171,#172));
#428=EDGE_LOOP('',(#173,#174,#175,#176));
#429=EDGE_LOOP('',(#177,#178,#179,#180));
#430=EDGE_LOOP('',(#181,#182,#183));
#431=EDGE_LOOP('',(#184,#185,#186,#187));
#432=FACE_BOUND('',#388,.T.);
#433=FACE_BOUND('',#389,.T.);
#434=FACE_BOUND('',#390,.T.);
#435=FACE_BOUND('',#391,.T.);
#436=FACE_BOUND('',#392,.T.);
#437=FACE_BOUND('',#393,.T.);
#438=FACE_BOUND('',#394,.T.);
#439=FACE_BOUND('',#395,.T.);
#440=FACE_BOUND('',#396,.T.);
#441=FACE_BOUND('',#397,.T.);
#442=FACE_BOUND('',#398,.T.);
#443=FACE_BOUND('',#399,.T.);
#444=FACE_BOUND('',#400,.T.);
#445=FACE_BOUND('',#401,.T.);
#446=FACE_BOUND('',#402,.T.);
#447=FACE_BOUND('',#403,.T.);
#448=FACE_BOUND('',#404,.T.);
#449=FACE_BOUND('',#405,.T.);
#450=FACE_BOUND('',#406,.T.);
#451=FACE_BOUND('',#407,.T.);
#452=FACE_BOUND('',#408,.T.);
#453=FACE_BOUND('',#409,.T.);
#454=FACE_BOUND('',#410,.T.);
#455=FACE_BOUND('',#411,.T.);
#456=FACE_BOUND('',#412,.T.);
#457=FACE_BOUND('',#413,.T.);
#458=FACE_BOUND('',#414,.T.);
#459=FACE_BOUND('',#415,.T.);
#460=FACE_BOUND('',#416,.T.);
#461=FACE_BOUND('',#417,.T.);
#462=FACE_BOUND('',#418,.T.);
#463=FACE_BOUND('',#419,.T.);
#464=FACE_BOUND('',#420,.T.);
#465=FACE_BOUND('',#421,.T.);
#466=FACE_BOUND('',#422,.T.);
#467=FACE_BOUND('',#423,.T.);
#468=FACE_BOUND('',#424,.T.);
#469=FACE_BOUND('',#425,.T.);
#470=FACE_BOUND('',#426,.T.);
#471=FACE_BOUND('',#427,.T.);
#472=FACE_BOUND('',#428,.T.);
#473=FACE_BOUND('',#429,.T.);
#474=FACE_BOUND('',#430,.T.);
#475=FACE_BOUND('',#431,.T.);
#476=PLANE('',#541);
#477=PLANE('',#542);
#478=PLANE('',#551);
#479=PLANE('',#552);
#480=PLANE('',#553);
#481=PLANE('',#554);
#482=PLANE('',#555);
#483=PLANE('',#556);
#484=PLANE('',#557);
#485=PLANE('',#558);
#486=PLANE('',#559);
#487=PLANE('',#560);
#488=PLANE('',#561);
#489=PLANE('',#562);
#490=PLANE('',#565);
#491=PLANE('',#568);
#492=PLANE('',#571);
#493=PLANE('',#574);
#494=ADVANCED_FACE('',(#432,#433),#476,.T.);
#495=ADVANCED_FACE('',(#434,#435,#436,#437,#438,#439),#477,.T.);
#496=ADVANCED_FACE('',(#440),#478,.F.);
#497=ADVANCED_FACE('',(#441),#479,.F.);
#498=ADVANCED_FACE('',(#442),#480,.T.);
#499=ADVANCED_FACE('',(#443),#481,.F.);
#500=ADVANCED_FACE('',(#444),#482,.F.);
#501=ADVANCED_FACE('',(#445),#483,.T.);
#502=ADVANCED_FACE('',(#446),#484,.T.);
#503=ADVANCED_FACE('',(#447),#485,.F.);
#504=ADVANCED_FACE('',(#448),#486,.T.);
#505=ADVANCED_FACE('',(#449),#487,.T.);
#506=ADVANCED_FACE('',(#450),#488,.F.);
#507=ADVANCED_FACE('',(#451),#489,.T.);
#508=ADVANCED_FACE('',(#452,#453),#16,.F.);
#509=ADVANCED_FACE('',(#454),#490,.T.);
#510=ADVANCED_FACE('',(#455,#456),#17,.F.);
#511=ADVANCED_FACE('',(#457),#491,.T.);
#512=ADVANCED_FACE('',(#458,#459),#18,.F.);
#513=ADVANCED_FACE('',(#460),#492,.T.);
#514=ADVANCED_FACE('',(#461,#462),#19,.F.);
#515=ADVANCED_FACE('',(#463),#493,.T.);
#516=ADVANCED_FACE('',(#464),#20,.T.);
#517=ADVANCED_FACE('',(#465),#12,.T.);
#518=ADVANCED_FACE('',(#466),#21,.T.);
#519=ADVANCED_FACE('',(#467),#22,.T.);
#520=ADVANCED_FACE('',(#468),#23,.T.);
#521=ADVANCED_FACE('',(#469),#24,.T.);
#522=ADVANCED_FACE('',(#470),#13,.T.);
#523=ADVANCED_FACE('',(#471),#14,.T.);
#524=ADVANCED_FACE('',(#472),#25,.T.);
#525=ADVANCED_FACE('',(#473),#26,.T.);
#526=ADVANCED_FACE('',(#474),#15,.T.);
#527=ADVANCED_FACE('',(#475),#27,.T.);
#528=CLOSED_SHELL('',(#494,#495,#496,#497,#498,#499,#500,#501,#502,#503,
#504,#505,#506,#507,#508,#509,#510,#511,#512,#513,#514,#515,#516,#517,#518,
#519,#520,#521,#522,#523,#524,#525,#526,#527));
#529=STYLED_ITEM('',(#530),#537);
#530=PRESENTATION_STYLE_ASSIGNMENT((#531));
#531=SURFACE_STYLE_USAGE(.BOTH.,#532);
#532=SURFACE_SIDE_STYLE('',(#533));
#533=SURFACE_STYLE_FILL_AREA(#534);
#534=FILL_AREA_STYLE('',(#535));
#535=FILL_AREA_STYLE_COLOUR('',#536);
#536=COLOUR_RGB('',0.647058823529412,0.647058823529412,0.647058823529412);
#537=MANIFOLD_SOLID_BREP('Part 2',#528);
#538=SHAPE_DEFINITION_REPRESENTATION(#914,#539);
#539=SHAPE_REPRESENTATION('Part 2',(#540),#909);
#540=AXIS2_PLACEMENT_3D('',#761,#599,#600);
#541=AXIS2_PLACEMENT_3D('',#762,#601,#602);
#542=AXIS2_PLACEMENT_3D('',#779,#611,#612);
#543=AXIS2_PLACEMENT_3D('',#780,#613,#614);
#544=AXIS2_PLACEMENT_3D('',#782,#615,#616);
#545=AXIS2_PLACEMENT_3D('',#784,#617,#618);
#546=AXIS2_PLACEMENT_3D('',#786,#619,#620);
#547=AXIS2_PLACEMENT_3D('',#788,#621,#622);
#548=AXIS2_PLACEMENT_3D('',#792,#624,#625);
#549=AXIS2_PLACEMENT_3D('',#796,#627,#628);
#550=AXIS2_PLACEMENT_3D('',#800,#630,#631);
#551=AXIS2_PLACEMENT_3D('',#809,#636,#637);
#552=AXIS2_PLACEMENT_3D('',#815,#641,#642);
#553=AXIS2_PLACEMENT_3D('',#821,#646,#647);
#554=AXIS2_PLACEMENT_3D('',#827,#651,#652);
#555=AXIS2_PLACEMENT_3D('',#836,#657,#658);
#556=AXIS2_PLACEMENT_3D('',#850,#666,#667);
#557=AXIS2_PLACEMENT_3D('',#854,#670,#671);
#558=AXIS2_PLACEMENT_3D('',#858,#674,#675);
#559=AXIS2_PLACEMENT_3D('',#860,#677,#678);
#560=AXIS2_PLACEMENT_3D('',#863,#681,#682);
#561=AXIS2_PLACEMENT_3D('',#866,#685,#686);
#562=AXIS2_PLACEMENT_3D('',#867,#687,#688);
#563=AXIS2_PLACEMENT_3D('',#868,#689,#690);
#564=AXIS2_PLACEMENT_3D('',#869,#691,#692);
#565=AXIS2_PLACEMENT_3D('',#871,#693,#694);
#566=AXIS2_PLACEMENT_3D('',#872,#695,#696);
#567=AXIS2_PLACEMENT_3D('',#873,#697,#698);
#568=AXIS2_PLACEMENT_3D('',#875,#699,#700);
#569=AXIS2_PLACEMENT_3D('',#876,#701,#702);
#570=AXIS2_PLACEMENT_3D('',#877,#703,#704);
#571=AXIS2_PLACEMENT_3D('',#879,#705,#706);
#572=AXIS2_PLACEMENT_3D('',#880,#707,#708);
#573=AXIS2_PLACEMENT_3D('',#881,#709,#710);
#574=AXIS2_PLACEMENT_3D('',#883,#711,#712);
#575=AXIS2_PLACEMENT_3D('',#884,#713,#714);
#576=AXIS2_PLACEMENT_3D('',#885,#715,#716);
#577=AXIS2_PLACEMENT_3D('',#886,#717,#718);
#578=AXIS2_PLACEMENT_3D('',#887,#719,#720);
#579=AXIS2_PLACEMENT_3D('',#888,#721,#722);
#580=AXIS2_PLACEMENT_3D('',#889,#723,#724);
#581=AXIS2_PLACEMENT_3D('',#890,#725,#726);
#582=AXIS2_PLACEMENT_3D('',#891,#727,#728);
#583=AXIS2_PLACEMENT_3D('',#892,#729,#730);
#584=AXIS2_PLACEMENT_3D('',#893,#731,#732);
#585=AXIS2_PLACEMENT_3D('',#894,#733,#734);
#586=AXIS2_PLACEMENT_3D('',#895,#735,#736);
#587=AXIS2_PLACEMENT_3D('',#896,#737,#738);
#588=AXIS2_PLACEMENT_3D('',#897,#739,#740);
#589=AXIS2_PLACEMENT_3D('',#898,#741,#742);
#590=AXIS2_PLACEMENT_3D('',#899,#743,#744);
#591=AXIS2_PLACEMENT_3D('',#900,#745,#746);
#592=AXIS2_PLACEMENT_3D('',#901,#747,#748);
#593=AXIS2_PLACEMENT_3D('',#902,#749,#750);
#594=AXIS2_PLACEMENT_3D('',#903,#751,#752);
#595=AXIS2_PLACEMENT_3D('',#904,#753,#754);
#596=AXIS2_PLACEMENT_3D('',#905,#755,#756);
#597=AXIS2_PLACEMENT_3D('',#906,#757,#758);
#598=AXIS2_PLACEMENT_3D('',#907,#759,#760);
#599=DIRECTION('',(0.,0.,1.));
#600=DIRECTION('',(1.,0.,0.));
#601=DIRECTION('',(-1.,0.,0.));
#602=DIRECTION('',(0.,0.,1.));
#603=DIRECTION('',(0.,0.,1.));
#604=DIRECTION('',(0.,1.,0.));
#605=DIRECTION('',(0.,0.,1.));
#606=DIRECTION('',(0.,1.,0.));
#607=DIRECTION('',(0.,1.,0.));
#608=DIRECTION('',(0.,-2.89120579329468E-16,-1.));
#609=DIRECTION('',(0.,1.,0.));
#610=DIRECTION('',(0.,-3.06161699786839E-16,-1.));
#611=DIRECTION('',(0.,-1.,0.));
#612=DIRECTION('',(1.,0.,0.));
#613=DIRECTION('',(0.,-1.,0.));
#614=DIRECTION('',(0.,0.,-1.));
#615=DIRECTION('',(0.,-1.,0.));
#616=DIRECTION('',(0.,0.,-1.));
#617=DIRECTION('',(0.,-1.,0.));
#618=DIRECTION('',(0.,0.,-1.));
#619=DIRECTION('',(0.,-1.,0.));
#620=DIRECTION('',(0.,0.,-1.));
#621=DIRECTION('',(0.,-1.,0.));
#622=DIRECTION('',(0.,0.,-1.));
#623=DIRECTION('',(1.,0.,0.));
#624=DIRECTION('',(0.,-1.,0.));
#625=DIRECTION('',(0.,0.,-1.));
#626=DIRECTION('',(-2.61845052977631E-16,0.,1.));
#627=DIRECTION('',(0.,-1.,0.));
#628=DIRECTION('',(0.,0.,-1.));
#629=DIRECTION('',(1.,0.,0.));
#630=DIRECTION('',(0.,-1.,0.));
#631=DIRECTION('',(0.,0.,-1.));
#632=DIRECTION('',(1.,0.,0.));
#633=DIRECTION('',(0.,0.,1.));
#634=DIRECTION('',(1.,0.,0.));
#635=DIRECTION('',(-2.61845052977631E-16,0.,1.));
#636=DIRECTION('',(0.,0.,1.));
#637=DIRECTION('',(1.,0.,0.));
#638=DIRECTION('',(0.,1.,0.));
#639=DIRECTION('',(1.,0.,0.));
#640=DIRECTION('',(0.,1.,0.));
#641=DIRECTION('',(-1.,0.,-2.61845052977631E-16));
#642=DIRECTION('',(-2.61845052977631E-16,0.,1.));
#643=DIRECTION('',(0.,1.,0.));
#644=DIRECTION('',(-2.61845052977631E-16,0.,1.));
#645=DIRECTION('',(0.,1.,0.));
#646=DIRECTION('',(0.,0.,1.));
#647=DIRECTION('',(1.,0.,0.));
#648=DIRECTION('',(0.,1.,0.));
#649=DIRECTION('',(1.,0.,0.));
#650=DIRECTION('',(0.,1.,0.));
#651=DIRECTION('',(0.,-1.,0.));
#652=DIRECTION('',(1.,0.,0.));
#653=DIRECTION('',(0.,0.,1.));
#654=DIRECTION('',(1.,0.,0.));
#655=DIRECTION('',(-2.61845052977631E-16,0.,1.));
#656=DIRECTION('',(1.,0.,0.));
#657=DIRECTION('',(-1.,0.,0.));
#658=DIRECTION('',(0.,0.,1.));
#659=DIRECTION('',(0.,-2.89120579329468E-16,-1.));
#660=DIRECTION('',(0.,1.,0.));
#661=DIRECTION('',(0.,0.,1.));
#662=DIRECTION('',(0.,1.,0.));
#663=DIRECTION('',(0.,1.,0.));
#664=DIRECTION('',(0.,0.,1.));
#665=DIRECTION('',(0.,1.,0.));
#666=DIRECTION('',(0.,0.,1.));
#667=DIRECTION('',(1.,0.,0.));
#668=DIRECTION('',(1.,0.,0.));
#669=DIRECTION('',(0.,1.,0.));
#670=DIRECTION('',(-1.,0.,-2.61845052977631E-16));
#671=DIRECTION('',(-2.61845052977631E-16,0.,1.));
#672=DIRECTION('',(-2.61845052977631E-16,0.,1.));
#673=DIRECTION('',(0.,1.,0.));
#674=DIRECTION('',(0.,0.,1.));
#675=DIRECTION('',(1.,0.,0.));
#676=DIRECTION('',(1.,0.,0.));
#677=DIRECTION('',(0.,-1.,0.));
#678=DIRECTION('',(1.,0.,0.));
#679=DIRECTION('',(-1.,0.,0.));
#680=DIRECTION('',(-1.,0.,0.));
#681=DIRECTION('',(0.,1.,-2.89120579329468E-16));
#682=DIRECTION('',(0.,2.89120579329468E-16,1.));
#683=DIRECTION('',(-1.,0.,0.));
#684=DIRECTION('',(-1.,0.,0.));
#685=DIRECTION('',(0.,0.,1.));
#686=DIRECTION('',(1.,0.,0.));
#687=DIRECTION('',(0.,0.,1.));
#688=DIRECTION('',(1.,0.,0.));
#689=DIRECTION('',(0.,-1.,0.));
#690=DIRECTION('',(0.,0.,-1.));
#691=DIRECTION('',(0.,-1.,0.));
#692=DIRECTION('',(0.,0.,-1.));
#693=DIRECTION('',(0.,-1.,0.));
#694=DIRECTION('',(1.,0.,0.));
#695=DIRECTION('',(0.,-1.,0.));
#696=DIRECTION('',(0.,0.,-1.));
#697=DIRECTION('',(0.,-1.,0.));
#698=DIRECTION('',(0.,0.,-1.));
#699=DIRECTION('',(0.,-1.,0.));
#700=DIRECTION('',(1.,0.,0.));
#701=DIRECTION('',(0.,-1.,0.));
#702=DIRECTION('',(0.,0.,-1.));
#703=DIRECTION('',(0.,-1.,0.));
#704=DIRECTION('',(0.,0.,-1.));
#705=DIRECTION('',(0.,-1.,0.));
#706=DIRECTION('',(1.,0.,0.));
#707=DIRECTION('',(0.,-1.,0.));
#708=DIRECTION('',(0.,0.,-1.));
#709=DIRECTION('',(0.,-1.,0.));
#710=DIRECTION('',(0.,0.,-1.));
#711=DIRECTION('',(0.,-1.,0.));
#712=DIRECTION('',(1.,0.,0.));
#713=DIRECTION('',(0.,-1.,0.));
#714=DIRECTION('',(0.,0.,-1.));
#715=DIRECTION('',(-8.71720339686838E-16,1.,0.));
#716=DIRECTION('',(-1.,-8.71720339686838E-16,0.));
#717=DIRECTION('',(1.,8.71720339686838E-16,0.));
#718=DIRECTION('',(-8.71720339686838E-16,1.,0.));
#719=DIRECTION('',(1.,0.,0.));
#720=DIRECTION('',(0.,0.,-1.));
#721=DIRECTION('',(0.,0.,1.));
#722=DIRECTION('',(1.,0.,0.));
#723=DIRECTION('',(0.,1.,0.));
#724=DIRECTION('',(0.,0.,1.));
#725=DIRECTION('',(0.,1.,0.));
#726=DIRECTION('',(0.,0.,1.));
#727=DIRECTION('',(-2.61845052977631E-16,0.,1.));
#728=DIRECTION('',(1.,0.,2.61845052977631E-16));
#729=DIRECTION('',(0.,0.,-1.));
#730=DIRECTION('',(-1.,0.,0.));
#731=DIRECTION('',(-1.,0.,0.));
#732=DIRECTION('',(0.,0.,1.));
#733=DIRECTION('',(-1.,0.,0.));
#734=DIRECTION('',(0.,0.,1.));
#735=DIRECTION('',(0.,1.,0.));
#736=DIRECTION('',(0.,0.,1.));
#737=DIRECTION('',(0.,1.,0.));
#738=DIRECTION('',(0.,0.,1.));
#739=DIRECTION('',(1.,8.71720339686838E-16,0.));
#740=DIRECTION('',(-8.71720339686838E-16,1.,0.));
#741=DIRECTION('',(1.,0.,0.));
#742=DIRECTION('',(0.,0.,-1.));
#743=DIRECTION('',(0.,0.,1.));
#744=DIRECTION('',(1.,0.,0.));
#745=DIRECTION('',(0.,0.,1.));
#746=DIRECTION('',(1.,0.,0.));
#747=DIRECTION('',(1.,0.,0.));
#748=DIRECTION('',(0.,0.,-1.));
#749=DIRECTION('',(-1.,0.,1.74344067937367E-15));
#750=DIRECTION('',(1.74344067937367E-15,0.,1.));
#751=DIRECTION('',(0.,0.,-1.));
#752=DIRECTION('',(-1.,0.,0.));
#753=DIRECTION('',(0.,0.,-1.));
#754=DIRECTION('',(-1.,0.,0.));
#755=DIRECTION('',(0.,1.,0.));
#756=DIRECTION('',(0.,0.,1.));
#757=DIRECTION('',(-8.7172033968684E-16,1.,0.));
#758=DIRECTION('',(-1.,-8.7172033968684E-16,0.));
#759=DIRECTION('',(0.,-1.,0.));
#760=DIRECTION('',(0.,0.,-1.));
#761=CARTESIAN_POINT('',(0.,0.,0.));
#762=CARTESIAN_POINT('',(-0.0226599104106427,-0.0155,0.0563904260838846));
#763=CARTESIAN_POINT('',(-0.0226599104106427,0.00051,0.0273904260838846));
#764=CARTESIAN_POINT('',(-0.0226599104106427,0.00051,0.0834004260838846));
#765=CARTESIAN_POINT('',(-0.0226599104106427,0.00051,0.0293804260838846));
#766=CARTESIAN_POINT('',(-0.0226599104106427,-0.0155,0.0293804260838846));
#767=CARTESIAN_POINT('',(-0.0226599104106427,-0.0155,0.0293804260838846));
#768=CARTESIAN_POINT('',(-0.0226599104106427,-0.0155,0.0563904260838846));
#769=CARTESIAN_POINT('',(-0.0226599104106427,-0.0155,0.0834004260838846));
#770=CARTESIAN_POINT('',(-0.0226599104106427,-0.0155,0.0834004260838846));
#771=CARTESIAN_POINT('',(-0.0226599104106427,-0.0025,0.0763904260838846));
#772=CARTESIAN_POINT('',(-0.0226599104106427,-0.005,0.0763904260838846));
#773=CARTESIAN_POINT('',(-0.0226599104106427,-9.44113495955833E-19,0.0763904260838846));
#774=CARTESIAN_POINT('',(-0.0226599104106427,-0.005,0.0733904260838846));
#775=CARTESIAN_POINT('',(-0.0226599104106427,-0.005,0.0703904260838846));
#776=CARTESIAN_POINT('',(-0.0226599104106427,-0.0025,0.0703904260838846));
#777=CARTESIAN_POINT('',(-0.0226599104106427,-1.7347234759768E-18,0.0703904260838846));
#778=CARTESIAN_POINT('',(-0.0226599104106427,-1.86259859531635E-18,0.0733904260838846));
#779=CARTESIAN_POINT('',(0.0163400895893574,-0.0155,0.0563904260838846));
#780=CARTESIAN_POINT('',(0.0537247231411599,-0.0155,0.0288951150876451));
#781=CARTESIAN_POINT('',(0.0537247231411599,-0.0155,0.0278951150876451));
#782=CARTESIAN_POINT('',(0.0536913344944155,-0.0155,0.0839223987009986));
#783=CARTESIAN_POINT('',(0.0536913344944155,-0.0155,0.0829223987009986));
#784=CARTESIAN_POINT('',(-0.0210987299879348,-0.0155,0.0838295886651399));
#785=CARTESIAN_POINT('',(-0.0210987299879348,-0.0155,0.0828295886651399));
#786=CARTESIAN_POINT('',(-0.0211115721833363,-0.0155,0.0289640036936205));
#787=CARTESIAN_POINT('',(-0.0211115721833363,-0.0155,0.0279640036936205));
#788=CARTESIAN_POINT('',(-0.0206699104106426,-0.0155,0.0293804260838846));
#789=CARTESIAN_POINT('',(-0.0206699104106426,-0.0155,0.0273904260838846));
#790=CARTESIAN_POINT('',(0.0163400895893574,-0.0155,0.0273904260838846));
#791=CARTESIAN_POINT('',(0.0533500895893574,-0.0155,0.0273904260838846));
#792=CARTESIAN_POINT('',(0.0533500895893574,-0.0155,0.0293804260838846));
#793=CARTESIAN_POINT('',(0.0553400895893574,-0.0155,0.0293804260838846));
#794=CARTESIAN_POINT('',(0.0553400895893574,-0.0155,0.0563904260838846));
#795=CARTESIAN_POINT('',(0.0553400895893573,-0.0155,0.0834004260838846));
#796=CARTESIAN_POINT('',(0.0533500895893573,-0.0155,0.0834004260838846));
#797=CARTESIAN_POINT('',(0.0533500895893573,-0.0155,0.0853904260838846));
#798=CARTESIAN_POINT('',(0.0163400895893574,-0.0155,0.0853904260838846));
#799=CARTESIAN_POINT('',(-0.0206699104106426,-0.0155,0.0853904260838846));
#800=CARTESIAN_POINT('',(-0.0206699104106426,-0.0155,0.0834004260838846));
#801=CARTESIAN_POINT('',(0.0163400895893574,-0.0155,0.0298904260838846));
#802=CARTESIAN_POINT('',(-0.0201599104106426,-0.0155,0.0298904260838846));
#803=CARTESIAN_POINT('',(0.0528400895893574,-0.0155,0.0298904260838846));
#804=CARTESIAN_POINT('',(-0.0201599104106426,-0.0155,0.0563904260838846));
#805=CARTESIAN_POINT('',(-0.0201599104106426,-0.0155,0.0828904260838846));
#806=CARTESIAN_POINT('',(0.0163400895893574,-0.0155,0.0828904260838846));
#807=CARTESIAN_POINT('',(0.0528400895893573,-0.0155,0.0828904260838846));
#808=CARTESIAN_POINT('',(0.0528400895893574,-0.0155,0.0563904260838846));
#809=CARTESIAN_POINT('',(0.0163400895893574,-0.0155,0.0273904260838846));
#810=CARTESIAN_POINT('',(-0.0206699104106426,0.0025,0.0273904260838846));
#811=CARTESIAN_POINT('',(-0.0206699104106426,0.00051,0.0273904260838846));
#812=CARTESIAN_POINT('',(0.0163400895893574,0.00051,0.0273904260838846));
#813=CARTESIAN_POINT('',(0.0533500895893574,0.00051,0.0273904260838846));
#814=CARTESIAN_POINT('',(0.0533500895893574,-0.0155,0.0273904260838846));
#815=CARTESIAN_POINT('',(0.0553400895893574,-0.0155,0.0563904260838846));
#816=CARTESIAN_POINT('',(0.0553400895893574,-0.0155,0.0293804260838846));
#817=CARTESIAN_POINT('',(0.0553400895893574,0.00051,0.0293804260838846));
#818=CARTESIAN_POINT('',(0.0553400895893574,0.00051,0.0563904260838846));
#819=CARTESIAN_POINT('',(0.0553400895893573,0.00051,0.0834004260838846));
#820=CARTESIAN_POINT('',(0.0553400895893573,-0.0155,0.0834004260838846));
#821=CARTESIAN_POINT('',(0.0163400895893574,-0.0155,0.0853904260838846));
#822=CARTESIAN_POINT('',(0.0533500895893573,0.0025,0.0853904260838846));
#823=CARTESIAN_POINT('',(0.0533500895893573,0.00051,0.0853904260838846));
#824=CARTESIAN_POINT('',(-0.0226599104106427,0.00051,0.0853904260838846));
#825=CARTESIAN_POINT('',(-0.0206699104106426,0.00051,0.0853904260838846));
#826=CARTESIAN_POINT('',(-0.0206699104106426,-0.0155,0.0853904260838846));
#827=CARTESIAN_POINT('',(0.0163400895893574,0.0025,0.0563904260838846));
#828=CARTESIAN_POINT('',(-0.0206699104106426,0.0025,0.0853904260838846));
#829=CARTESIAN_POINT('',(-0.0206699104106426,0.0025,0.0293804260838846));
#830=CARTESIAN_POINT('',(-0.0206699104106426,0.0025,0.0834004260838846));
#831=CARTESIAN_POINT('',(0.0553400895893573,0.0025,0.0834004260838846));
#832=CARTESIAN_POINT('',(0.0533500895893573,0.0025,0.0834004260838846));
#833=CARTESIAN_POINT('',(0.0533500895893574,0.0025,0.0563904260838846));
#834=CARTESIAN_POINT('',(0.0533500895893574,0.0025,0.0293804260838846));
#835=CARTESIAN_POINT('',(0.0163400895893574,0.0025,0.0293804260838846));
#836=CARTESIAN_POINT('',(-0.0201599104106426,-0.0155,0.0563904260838846));
#837=CARTESIAN_POINT('',(-0.0201599104106426,-0.005,0.0563904260838846));
#838=CARTESIAN_POINT('',(-0.0201599104106426,-0.005,0.0763904260838846));
#839=CARTESIAN_POINT('',(-0.0201599104106426,-0.005,0.0703904260838846));
#840=CARTESIAN_POINT('',(-0.0201599104106426,-0.0155,0.0763904260838846));
#841=CARTESIAN_POINT('',(-0.0201599104106426,-9.44113495955833E-19,0.0763904260838846));
#842=CARTESIAN_POINT('',(-0.0201599104106426,0.,0.0563904260838846));
#843=CARTESIAN_POINT('',(-0.0201599104106426,0.,0.0828904260838846));
#844=CARTESIAN_POINT('',(-0.0201599104106426,-0.0155,0.0828904260838846));
#845=CARTESIAN_POINT('',(-0.0201599104106426,-0.0155,0.0298904260838846));
#846=CARTESIAN_POINT('',(-0.0201599104106426,0.,0.0298904260838846));
#847=CARTESIAN_POINT('',(-0.0201599104106426,0.,0.0563904260838846));
#848=CARTESIAN_POINT('',(-0.0201599104106426,-2.78108369467687E-18,0.0703904260838846));
#849=CARTESIAN_POINT('',(-0.0201599104106426,-0.0155,0.0703904260838846));
#850=CARTESIAN_POINT('',(0.0163400895893574,-0.0155,0.0298904260838846));
#851=CARTESIAN_POINT('',(0.0163400895893574,0.,0.0298904260838846));
#852=CARTESIAN_POINT('',(0.0528400895893574,0.,0.0298904260838846));
#853=CARTESIAN_POINT('',(0.0528400895893574,-0.0155,0.0298904260838846));
#854=CARTESIAN_POINT('',(0.0528400895893574,-0.0155,0.0563904260838846));
#855=CARTESIAN_POINT('',(0.0528400895893574,0.,0.0563904260838846));
#856=CARTESIAN_POINT('',(0.0528400895893573,0.,0.0828904260838846));
#857=CARTESIAN_POINT('',(0.0528400895893573,-0.0155,0.0828904260838846));
#858=CARTESIAN_POINT('',(0.0163400895893574,-0.0155,0.0828904260838846));
#859=CARTESIAN_POINT('',(0.0163400895893574,0.,0.0828904260838846));
#860=CARTESIAN_POINT('',(0.0163400895893574,0.,0.0563904260838846));
#861=CARTESIAN_POINT('',(-0.00595991041064263,-9.44113495955833E-19,0.0763904260838846));
#862=CARTESIAN_POINT('',(-0.00595991041064263,-2.78108369467687E-18,0.0703904260838846));
#863=CARTESIAN_POINT('',(-0.00595991041064263,-0.005,0.0733904260838846));
#864=CARTESIAN_POINT('',(-0.00595991041064263,-0.005,0.0703904260838846));
#865=CARTESIAN_POINT('',(-0.00595991041064263,-0.005,0.0763904260838846));
#866=CARTESIAN_POINT('',(-0.00595991041064263,-0.0025,0.0763904260838846));
#867=CARTESIAN_POINT('',(-0.00595991041064263,-0.0025,0.0703904260838846));
#868=CARTESIAN_POINT('',(-0.0211115721833363,-0.0095,0.0289640036936205));
#869=CARTESIAN_POINT('',(-0.0211115721833363,-0.0095,0.0289640036936205));
#870=CARTESIAN_POINT('',(-0.0211115721833363,-0.0095,0.0279640036936205));
#871=CARTESIAN_POINT('',(0.0163400895893574,-0.0095,0.0563904260838846));
#872=CARTESIAN_POINT('',(-0.0210987299879348,-0.0095,0.0838295886651399));
#873=CARTESIAN_POINT('',(-0.0210987299879348,-0.0095,0.0838295886651399));
#874=CARTESIAN_POINT('',(-0.0210987299879348,-0.0095,0.0828295886651399));
#875=CARTESIAN_POINT('',(0.0163400895893574,-0.0095,0.0563904260838846));
#876=CARTESIAN_POINT('',(0.0536913344944155,-0.0095,0.0839223987009986));
#877=CARTESIAN_POINT('',(0.0536913344944155,-0.0095,0.0839223987009986));
#878=CARTESIAN_POINT('',(0.0536913344944155,-0.0095,0.0829223987009986));
#879=CARTESIAN_POINT('',(0.0163400895893574,-0.0095,0.0563904260838846));
#880=CARTESIAN_POINT('',(0.0537247231411599,-0.0095,0.0288951150876451));
#881=CARTESIAN_POINT('',(0.0537247231411599,-0.0095,0.0288951150876451));
#882=CARTESIAN_POINT('',(0.0537247231411599,-0.0095,0.0278951150876451));
#883=CARTESIAN_POINT('',(0.0163400895893574,-0.0095,0.0563904260838846));
#884=CARTESIAN_POINT('',(0.0533500895893573,-0.0155,0.0834004260838846));
#885=CARTESIAN_POINT('',(0.0533500895893573,0.00051,0.0834004260838846));
#886=CARTESIAN_POINT('',(0.0533500895893573,0.00051,0.0834004260838846));
#887=CARTESIAN_POINT('',(0.0533500895893573,0.00051,0.0834004260838846));
#888=CARTESIAN_POINT('',(0.0533500895893573,0.00051,0.0834004260838846));
#889=CARTESIAN_POINT('',(0.0533500895893574,-0.0155,0.0293804260838846));
#890=CARTESIAN_POINT('',(0.0533500895893574,0.00051,0.0293804260838846));
#891=CARTESIAN_POINT('',(0.0533500895893574,0.00051,0.0563904260838846));
#892=CARTESIAN_POINT('',(0.0533500895893574,0.00051,0.0293804260838846));
#893=CARTESIAN_POINT('',(0.0163400895893574,0.00051,0.0834004260838846));
#894=CARTESIAN_POINT('',(-0.0206699104106426,0.00051,0.0834004260838846));
#895=CARTESIAN_POINT('',(-0.0206699104106426,-0.0155,0.0834004260838846));
#896=CARTESIAN_POINT('',(-0.0206699104106426,0.00051,0.0834004260838846));
#897=CARTESIAN_POINT('',(0.0533500895893574,0.00051,0.0293804260838846));
#898=CARTESIAN_POINT('',(0.0533500895893574,0.00051,0.0293804260838846));
#899=CARTESIAN_POINT('',(-0.0206699104106426,0.00051,0.0834004260838846));
#900=CARTESIAN_POINT('',(-0.0206699104106426,0.00051,0.0834004260838846));
#901=CARTESIAN_POINT('',(0.0163400895893574,0.00051,0.0293804260838846));
#902=CARTESIAN_POINT('',(-0.0206699104106426,0.00051,0.0293804260838846));
#903=CARTESIAN_POINT('',(-0.0206699104106426,0.00051,0.0563904260838846));
#904=CARTESIAN_POINT('',(-0.0206699104106426,0.00051,0.0293804260838846));
#905=CARTESIAN_POINT('',(-0.0206699104106426,0.00051,0.0293804260838846));
#906=CARTESIAN_POINT('',(-0.0206699104106426,0.00051,0.0293804260838846));
#907=CARTESIAN_POINT('',(-0.0206699104106426,-0.0155,0.0293804260838846));
#908=MECHANICAL_DESIGN_GEOMETRIC_PRESENTATION_REPRESENTATION('',(#529),
#909);
#909=(
GEOMETRIC_REPRESENTATION_CONTEXT(3)
GLOBAL_UNCERTAINTY_ASSIGNED_CONTEXT((#910))
GLOBAL_UNIT_ASSIGNED_CONTEXT((#913,#912,#911))
REPRESENTATION_CONTEXT('Part 2','TOP_LEVEL_ASSEMBLY_PART')
);
#910=UNCERTAINTY_MEASURE_WITH_UNIT(LENGTH_MEASURE(1.E-8),#913,
'DISTANCE_ACCURACY_VALUE','Maximum Tolerance applied to model');
#911=(
NAMED_UNIT(*)
SI_UNIT($,.STERADIAN.)
SOLID_ANGLE_UNIT()
);
#912=(
NAMED_UNIT(*)
PLANE_ANGLE_UNIT()
SI_UNIT($,.RADIAN.)
);
#913=(
LENGTH_UNIT()
NAMED_UNIT(*)
SI_UNIT($,.METRE.)
);
#914=PRODUCT_DEFINITION_SHAPE('','',#915);
#915=PRODUCT_DEFINITION('','',#917,#916);
#916=PRODUCT_DEFINITION_CONTEXT('',#923,'design');
#917=PRODUCT_DEFINITION_FORMATION_WITH_SPECIFIED_SOURCE('','',#919,
 .NOT_KNOWN.);
#918=PRODUCT_RELATED_PRODUCT_CATEGORY('','',(#919));
#919=PRODUCT('Part 2','Part 2','Part 2',(#921));
#920=PRODUCT_CATEGORY('','');
#921=PRODUCT_CONTEXT('',#923,'mechanical');
#922=APPLICATION_PROTOCOL_DEFINITION('international standard',
'ap242_managed_model_based_3d_engineering',2020,#923);
#923=APPLICATION_CONTEXT('managed model based 3d engineering');
ENDSEC;
END-ISO-10303-21;
